<svg width="24" height="24" viewBox="0 0 24 24" fill="none" xmlns="http://www.w3.org/2000/svg">
<mask id="path-1-outside-1_2062_3154" maskUnits="userSpaceOnUse" x="1" y="1" width="22" height="22" fill="black">
<rect fill="white" x="1" y="1" width="22" height="22"/>
<path fill-rule="evenodd" clip-rule="evenodd" d="M16.0786 18.3613C15.6597 18.7526 15.2939 19.0973 14.9227 19.442C14.6223 19.7212 14.4703 19.7212 14.1893 19.442C13.8028 19.0559 13.4181 18.6681 13.0352 18.2786C12.7701 18.008 12.7807 17.8494 13.0511 17.5891C13.348 17.2926 13.6361 16.9876 13.9489 16.667L12.0049 14.8933L10.0484 16.6756C10.3595 16.991 10.6493 17.2944 10.9462 17.5891C11.2025 17.8442 11.2149 18.0217 10.971 18.2786C10.5751 18.6819 10.1774 19.0852 9.77626 19.4851C9.52529 19.735 9.36447 19.7368 9.10644 19.4989C8.72116 19.1421 8.34118 18.7784 8.04604 18.4957C7.4098 19.068 6.77886 19.6127 6.1762 20.1849C5.62656 20.702 5.1158 21.257 4.57147 21.7931C4.3046 22.0637 4.1261 22.0671 3.86453 21.8137C3.32137 21.3001 2.7788 20.783 2.23682 20.2625C1.94168 19.9781 1.93814 19.8402 2.23682 19.5472C3.25598 18.4888 4.28575 17.4369 5.32612 16.3912L5.53289 16.1775C5.19887 15.8327 4.87545 15.5001 4.54496 15.1708C4.21447 14.8416 4.2286 14.7348 4.52552 14.4435C4.91433 14.0447 5.3055 13.6495 5.69902 13.2576C5.93938 13.018 6.10374 13.0077 6.34233 13.2576C6.64455 13.5627 6.92202 13.8936 7.2419 14.247L7.37213 14.1018C7.97386 13.4312 8.50737 12.8365 9.05165 12.2269L6.96797 10.3068C5.49284 8.96921 4.01594 7.62937 2.53727 6.28723C2.44345 6.20819 2.36751 6.11098 2.31426 6.00179C2.26102 5.89259 2.23164 5.77379 2.22799 5.65293C2.16613 4.61875 2.076 3.57423 2.00354 2.53488C1.97526 2.10569 2.11311 1.98159 2.54434 2.01779C3.61534 2.1212 4.68634 2.23152 5.75735 2.32976C5.88167 2.3395 6.00261 2.37406 6.11266 2.43129C6.22272 2.48851 6.31954 2.56718 6.39712 2.66243C8.21276 4.70206 10.0302 6.73768 11.8493 8.76927C11.8882 8.81236 11.9165 8.86062 11.9713 8.94163L12.9186 7.89366C14.495 6.13038 16.0662 4.36538 17.6515 2.61072C17.7771 2.4725 17.9473 2.3801 18.134 2.34872C19.2598 2.21945 20.3891 2.11259 21.5184 2.004C21.8348 1.97297 21.9938 2.12293 21.9726 2.4418C21.8984 3.57768 21.8206 4.71183 21.7216 5.84426C21.6927 5.99923 21.6119 6.14047 21.4919 6.24586C19.397 8.16255 17.298 10.0758 15.1949 11.9856C15.1171 12.0545 15.0288 12.1131 14.9245 12.1924L16.6777 14.1591C16.9905 13.8626 17.2856 13.5817 17.5843 13.2973C17.883 13.0129 18.0456 12.9973 18.3584 13.3093C18.7366 13.6902 19.1184 14.0677 19.493 14.4521C19.7511 14.7141 19.7422 14.8692 19.493 15.1295C19.159 15.4742 18.8321 15.8189 18.4786 16.1947C18.901 16.6222 19.3623 17.0979 19.8394 17.5736C20.4745 18.2125 21.109 18.852 21.7429 19.492C22.0857 19.8367 22.0857 19.9626 21.7429 20.2918L20.2389 21.7172C19.8571 22.0775 19.7352 22.0757 19.3552 21.6965C18.3278 20.6624 17.3021 19.6282 16.2783 18.594C16.2058 18.5337 16.1581 18.4595 16.0786 18.3613ZM21.0165 2.78653H21.2038H21.2109C21.1384 3.74659 21.0677 4.67219 20.9864 5.59088C20.965 5.69038 20.9103 5.78012 20.8309 5.84598C18.6147 7.86034 16.3984 9.87412 14.1822 11.8873C12.7365 13.2099 11.2897 14.5314 9.84165 15.8517L9.46167 16.1964L7.96651 14.5417L8.03461 14.465C8.32277 14.1405 8.69087 13.7259 9.06049 13.3128C12.0461 9.97581 15.0305 6.6354 18.0138 3.29155C18.0768 3.2171 18.1551 3.15638 18.2437 3.11333C18.3323 3.07028 18.4292 3.04585 18.5281 3.04163C19.3587 2.96751 20.1876 2.87271 21.0165 2.78653ZM2.9844 5.4392C2.90134 4.5636 2.84832 3.68626 2.78116 2.76757C3.77793 2.86926 4.73229 2.96406 5.68488 3.06748C5.75942 3.08509 5.82554 3.12707 5.87222 3.18641C7.74206 5.27546 9.60836 7.37657 11.487 9.47251L9.54297 11.6495C8.89966 11.072 8.26695 10.4998 7.63602 9.92583C6.16383 8.58312 4.68458 7.24385 3.21769 5.8908C3.09061 5.76975 3.00852 5.61084 2.9844 5.4392ZM2.98617 19.8005L6.11611 16.6411L7.31967 17.939L4.17205 21.1157L2.98617 19.8005ZM17.8777 16.6446L21.0218 19.8178L19.8076 21.1122L16.6688 17.9425L17.8777 16.6446ZM13.7404 17.9666L17.9201 14.0022L18.7896 14.7641L14.6134 18.7284L13.7404 17.9666ZM9.34679 18.6957L5.21124 14.7744L6.10374 14.0298L10.2305 17.9425L9.34679 18.6957ZM14.3855 12.7129C14.9669 13.3645 15.5378 14.0005 16.0538 14.5796L14.5392 16.205L12.5492 14.39L14.3855 12.7129Z"/>
</mask>
<path fill-rule="evenodd" clip-rule="evenodd" d="M16.0786 18.3613C15.6597 18.7526 15.2939 19.0973 14.9227 19.442C14.6223 19.7212 14.4703 19.7212 14.1893 19.442C13.8028 19.0559 13.4181 18.6681 13.0352 18.2786C12.7701 18.008 12.7807 17.8494 13.0511 17.5891C13.348 17.2926 13.6361 16.9876 13.9489 16.667L12.0049 14.8933L10.0484 16.6756C10.3595 16.991 10.6493 17.2944 10.9462 17.5891C11.2025 17.8442 11.2149 18.0217 10.971 18.2786C10.5751 18.6819 10.1774 19.0852 9.77626 19.4851C9.52529 19.735 9.36447 19.7368 9.10644 19.4989C8.72116 19.1421 8.34118 18.7784 8.04604 18.4957C7.4098 19.068 6.77886 19.6127 6.1762 20.1849C5.62656 20.702 5.1158 21.257 4.57147 21.7931C4.3046 22.0637 4.1261 22.0671 3.86453 21.8137C3.32137 21.3001 2.7788 20.783 2.23682 20.2625C1.94168 19.9781 1.93814 19.8402 2.23682 19.5472C3.25598 18.4888 4.28575 17.4369 5.32612 16.3912L5.53289 16.1775C5.19887 15.8327 4.87545 15.5001 4.54496 15.1708C4.21447 14.8416 4.2286 14.7348 4.52552 14.4435C4.91433 14.0447 5.3055 13.6495 5.69902 13.2576C5.93938 13.018 6.10374 13.0077 6.34233 13.2576C6.64455 13.5627 6.92202 13.8936 7.2419 14.247L7.37213 14.1018C7.97386 13.4312 8.50737 12.8365 9.05165 12.2269L6.96797 10.3068C5.49284 8.96921 4.01594 7.62937 2.53727 6.28723C2.44345 6.20819 2.36751 6.11098 2.31426 6.00179C2.26102 5.89259 2.23164 5.77379 2.22799 5.65293C2.16613 4.61875 2.076 3.57423 2.00354 2.53488C1.97526 2.10569 2.11311 1.98159 2.54434 2.01779C3.61534 2.1212 4.68634 2.23152 5.75735 2.32976C5.88167 2.3395 6.00261 2.37406 6.11266 2.43129C6.22272 2.48851 6.31954 2.56718 6.39712 2.66243C8.21276 4.70206 10.0302 6.73768 11.8493 8.76927C11.8882 8.81236 11.9165 8.86062 11.9713 8.94163L12.9186 7.89366C14.495 6.13038 16.0662 4.36538 17.6515 2.61072C17.7771 2.4725 17.9473 2.3801 18.134 2.34872C19.2598 2.21945 20.3891 2.11259 21.5184 2.004C21.8348 1.97297 21.9938 2.12293 21.9726 2.4418C21.8984 3.57768 21.8206 4.71183 21.7216 5.84426C21.6927 5.99923 21.6119 6.14047 21.4919 6.24586C19.397 8.16255 17.298 10.0758 15.1949 11.9856C15.1171 12.0545 15.0288 12.1131 14.9245 12.1924L16.6777 14.1591C16.9905 13.8626 17.2856 13.5817 17.5843 13.2973C17.883 13.0129 18.0456 12.9973 18.3584 13.3093C18.7366 13.6902 19.1184 14.0677 19.493 14.4521C19.7511 14.7141 19.7422 14.8692 19.493 15.1295C19.159 15.4742 18.8321 15.8189 18.4786 16.1947C18.901 16.6222 19.3623 17.0979 19.8394 17.5736C20.4745 18.2125 21.109 18.852 21.7429 19.492C22.0857 19.8367 22.0857 19.9626 21.7429 20.2918L20.2389 21.7172C19.8571 22.0775 19.7352 22.0757 19.3552 21.6965C18.3278 20.6624 17.3021 19.6282 16.2783 18.594C16.2058 18.5337 16.1581 18.4595 16.0786 18.3613ZM21.0165 2.78653H21.2038H21.2109C21.1384 3.74659 21.0677 4.67219 20.9864 5.59088C20.965 5.69038 20.9103 5.78012 20.8309 5.84598C18.6147 7.86034 16.3984 9.87412 14.1822 11.8873C12.7365 13.2099 11.2897 14.5314 9.84165 15.8517L9.46167 16.1964L7.96651 14.5417L8.03461 14.465C8.32277 14.1405 8.69087 13.7259 9.06049 13.3128C12.0461 9.97581 15.0305 6.6354 18.0138 3.29155C18.0768 3.2171 18.1551 3.15638 18.2437 3.11333C18.3323 3.07028 18.4292 3.04585 18.5281 3.04163C19.3587 2.96751 20.1876 2.87271 21.0165 2.78653ZM2.9844 5.4392C2.90134 4.5636 2.84832 3.68626 2.78116 2.76757C3.77793 2.86926 4.73229 2.96406 5.68488 3.06748C5.75942 3.08509 5.82554 3.12707 5.87222 3.18641C7.74206 5.27546 9.60836 7.37657 11.487 9.47251L9.54297 11.6495C8.89966 11.072 8.26695 10.4998 7.63602 9.92583C6.16383 8.58312 4.68458 7.24385 3.21769 5.8908C3.09061 5.76975 3.00852 5.61084 2.9844 5.4392ZM2.98617 19.8005L6.11611 16.6411L7.31967 17.939L4.17205 21.1157L2.98617 19.8005ZM17.8777 16.6446L21.0218 19.8178L19.8076 21.1122L16.6688 17.9425L17.8777 16.6446ZM13.7404 17.9666L17.9201 14.0022L18.7896 14.7641L14.6134 18.7284L13.7404 17.9666ZM9.34679 18.6957L5.21124 14.7744L6.10374 14.0298L10.2305 17.9425L9.34679 18.6957ZM14.3855 12.7129C14.9669 13.3645 15.5378 14.0005 16.0538 14.5796L14.5392 16.205L12.5492 14.39L14.3855 12.7129Z" fill="#646D7A"/>
<path d="M21.2038 2.61153C21.2036 2.61153 21.2035 2.61153 21.2033 2.61153C21.2031 2.61153 21.2029 2.61153 21.2027 2.61153C21.2025 2.61153 21.2024 2.61153 21.2022 2.61153C21.202 2.61153 21.2018 2.61153 21.2016 2.61153C21.2014 2.61153 21.2013 2.61153 21.2011 2.61153C21.2009 2.61153 21.2007 2.61153 21.2005 2.61153C21.2004 2.61153 21.2002 2.61153 21.2 2.61153C21.1998 2.61153 21.1996 2.61153 21.1995 2.61153C21.1993 2.61153 21.1991 2.61153 21.1989 2.61153C21.1987 2.61153 21.1986 2.61153 21.1984 2.61153C21.1982 2.61153 21.198 2.61153 21.1978 2.61153C21.1977 2.61153 21.1975 2.61153 21.1973 2.61153C21.1971 2.61153 21.1969 2.61153 21.1968 2.61153C21.1966 2.61153 21.1964 2.61153 21.1962 2.61153C21.1961 2.61153 21.1959 2.61153 21.1957 2.61153C21.1955 2.61153 21.1953 2.61153 21.1952 2.61153C21.195 2.61153 21.1948 2.61153 21.1946 2.61153C21.1945 2.61153 21.1943 2.61153 21.1941 2.61153C21.1939 2.61153 21.1938 2.61153 21.1936 2.61153C21.1934 2.61153 21.1932 2.61153 21.193 2.61153C21.1929 2.61153 21.1927 2.61153 21.1925 2.61153C21.1923 2.61153 21.1922 2.61153 21.192 2.61153C21.1918 2.61153 21.1916 2.61153 21.1915 2.61153C21.1913 2.61153 21.1911 2.61153 21.1909 2.61153C21.1908 2.61153 21.1906 2.61153 21.1904 2.61153C21.1902 2.61153 21.1901 2.61153 21.1899 2.61153C21.1897 2.61153 21.1895 2.61153 21.1894 2.61153C21.1892 2.61153 21.189 2.61153 21.1889 2.61153C21.1887 2.61153 21.1885 2.61153 21.1883 2.61153C21.1882 2.61153 21.188 2.61153 21.1878 2.61153C21.1876 2.61153 21.1875 2.61153 21.1873 2.61153C21.1871 2.61153 21.187 2.61153 21.1868 2.61153C21.1866 2.61153 21.1864 2.61153 21.1863 2.61153C21.1861 2.61153 21.1859 2.61153 21.1858 2.61153C21.1856 2.61153 21.1854 2.61153 21.1852 2.61153C21.1851 2.61153 21.1849 2.61153 21.1847 2.61153C21.1846 2.61153 21.1844 2.61153 21.1842 2.61153C21.184 2.61153 21.1839 2.61153 21.1837 2.61153C21.1835 2.61153 21.1834 2.61153 21.1832 2.61153C21.183 2.61153 21.1829 2.61153 21.1827 2.61153C21.1825 2.61153 21.1823 2.61153 21.1822 2.61153C21.182 2.61153 21.1818 2.61153 21.1817 2.61153C21.1815 2.61153 21.1813 2.61153 21.1812 2.61153C21.181 2.61153 21.1808 2.61153 21.1807 2.61153C21.1805 2.61153 21.1803 2.61153 21.1802 2.61153C21.18 2.61153 21.1798 2.61153 21.1797 2.61153C21.1795 2.61153 21.1793 2.61153 21.1791 2.61153C21.179 2.61153 21.1788 2.61153 21.1786 2.61153C21.1785 2.61153 21.1783 2.61153 21.1781 2.61153C21.178 2.61153 21.1778 2.61153 21.1776 2.61153C21.1775 2.61153 21.1773 2.61153 21.1772 2.61153C21.177 2.61153 21.1768 2.61153 21.1767 2.61153C21.1765 2.61153 21.1763 2.61153 21.1762 2.61153C21.176 2.61153 21.1758 2.61153 21.1757 2.61153C21.1755 2.61153 21.1753 2.61153 21.1752 2.61153C21.175 2.61153 21.1748 2.61153 21.1747 2.61153C21.1745 2.61153 21.1743 2.61153 21.1742 2.61153C21.174 2.61153 21.1739 2.61153 21.1737 2.61153C21.1735 2.61153 21.1734 2.61153 21.1732 2.61153C21.173 2.61153 21.1729 2.61153 21.1727 2.61153C21.1725 2.61153 21.1724 2.61153 21.1722 2.61153C21.1721 2.61153 21.1719 2.61153 21.1717 2.61153C21.1716 2.61153 21.1714 2.61153 21.1712 2.61153C21.1711 2.61153 21.1709 2.61153 21.1708 2.61153C21.1706 2.61153 21.1704 2.61153 21.1703 2.61153C21.1701 2.61153 21.17 2.61153 21.1698 2.61153C21.1696 2.61153 21.1695 2.61153 21.1693 2.61153C21.1691 2.61153 21.169 2.61153 21.1688 2.61153C21.1687 2.61153 21.1685 2.61153 21.1683 2.61153C21.1682 2.61153 21.168 2.61153 21.1679 2.61153C21.1677 2.61153 21.1675 2.61153 21.1674 2.61153C21.1672 2.61153 21.1671 2.61153 21.1669 2.61153C21.1667 2.61153 21.1666 2.61153 21.1664 2.61153C21.1663 2.61153 21.1661 2.61153 21.1659 2.61153C21.1658 2.61153 21.1656 2.61153 21.1655 2.61153C21.1653 2.61153 21.1652 2.61153 21.165 2.61153C21.1648 2.61153 21.1647 2.61153 21.1645 2.61153C21.1644 2.61153 21.1642 2.61153 21.1641 2.61153C21.1639 2.61153 21.1637 2.61153 21.1636 2.61153C21.1634 2.61153 21.1633 2.61153 21.1631 2.61153C21.163 2.61153 21.1628 2.61153 21.1626 2.61153C21.1625 2.61153 21.1623 2.61153 21.1622 2.61153C21.162 2.61153 21.1619 2.61153 21.1617 2.61153C21.1615 2.61153 21.1614 2.61153 21.1612 2.61153C21.1611 2.61153 21.1609 2.61153 21.1608 2.61153C21.1606 2.61153 21.1605 2.61153 21.1603 2.61153C21.1601 2.61153 21.16 2.61153 21.1598 2.61153C21.1597 2.61153 21.1595 2.61153 21.1594 2.61153C21.1592 2.61153 21.1591 2.61153 21.1589 2.61153C21.1587 2.61153 21.1586 2.61153 21.1584 2.61153C21.1583 2.61153 21.1581 2.61153 21.158 2.61153C21.1578 2.61153 21.1577 2.61153 21.1575 2.61153C21.1574 2.61153 21.1572 2.61153 21.1571 2.61153C21.1569 2.61153 21.1568 2.61153 21.1566 2.61153C21.1564 2.61153 21.1563 2.61153 21.1561 2.61153C21.156 2.61153 21.1558 2.61153 21.1557 2.61153C21.1555 2.61153 21.1554 2.61153 21.1552 2.61153C21.1551 2.61153 21.1549 2.61153 21.1548 2.61153C21.1546 2.61153 21.1545 2.61153 21.1543 2.61153C21.1542 2.61153 21.154 2.61153 21.1539 2.61153C21.1537 2.61153 21.1536 2.61153 21.1534 2.61153C21.1533 2.61153 21.1531 2.61153 21.153 2.61153C21.1528 2.61153 21.1527 2.61153 21.1525 2.61153C21.1524 2.61153 21.1522 2.61153 21.1521 2.61153C21.1519 2.61153 21.1518 2.61153 21.1516 2.61153C21.1515 2.61153 21.1513 2.61153 21.1512 2.61153C21.151 2.61153 21.1509 2.61153 21.1507 2.61153C21.1506 2.61153 21.1504 2.61153 21.1503 2.61153C21.1501 2.61153 21.15 2.61153 21.1498 2.61153C21.1497 2.61153 21.1495 2.61153 21.1494 2.61153C21.1492 2.61153 21.1491 2.61153 21.1489 2.61153C21.1488 2.61153 21.1486 2.61153 21.1485 2.61153C21.1483 2.61153 21.1482 2.61153 21.148 2.61153C21.1479 2.61153 21.1477 2.61153 21.1476 2.61153C21.1474 2.61153 21.1473 2.61153 21.1472 2.61153C21.147 2.61153 21.1469 2.61153 21.1467 2.61153C21.1466 2.61153 21.1464 2.61153 21.1463 2.61153C21.1461 2.61153 21.146 2.61153 21.1458 2.61153C21.1457 2.61153 21.1455 2.61153 21.1454 2.61153C21.1453 2.61153 21.1451 2.61153 21.145 2.61153C21.1448 2.61153 21.1447 2.61153 21.1445 2.61153C21.1444 2.61153 21.1442 2.61153 21.1441 2.61153C21.1439 2.61153 21.1438 2.61153 21.1437 2.61153C21.1435 2.61153 21.1434 2.61153 21.1432 2.61153C21.1431 2.61153 21.1429 2.61153 21.1428 2.61153C21.1426 2.61153 21.1425 2.61153 21.1424 2.61153C21.1422 2.61153 21.1421 2.61153 21.1419 2.61153C21.1418 2.61153 21.1416 2.61153 21.1415 2.61153C21.1413 2.61153 21.1412 2.61153 21.1411 2.61153C21.1409 2.61153 21.1408 2.61153 21.1406 2.61153C21.1405 2.61153 21.1403 2.61153 21.1402 2.61153C21.1401 2.61153 21.1399 2.61153 21.1398 2.61153C21.1396 2.61153 21.1395 2.61153 21.1393 2.61153C21.1392 2.61153 21.1391 2.61153 21.1389 2.61153C21.1388 2.61153 21.1386 2.61153 21.1385 2.61153C21.1384 2.61153 21.1382 2.61153 21.1381 2.61153C21.1379 2.61153 21.1378 2.61153 21.1376 2.61153C21.1375 2.61153 21.1374 2.61153 21.1372 2.61153C21.1371 2.61153 21.1369 2.61153 21.1368 2.61153C21.1367 2.61153 21.1365 2.61153 21.1364 2.61153C21.1362 2.61153 21.1361 2.61153 21.136 2.61153C21.1358 2.61153 21.1357 2.61153 21.1355 2.61153C21.1354 2.61153 21.1353 2.61153 21.1351 2.61153C21.135 2.61153 21.1348 2.61153 21.1347 2.61153C21.1346 2.61153 21.1344 2.61153 21.1343 2.61153C21.1341 2.61153 21.134 2.61153 21.1339 2.61153C21.1337 2.61153 21.1336 2.61153 21.1335 2.61153C21.1333 2.61153 21.1332 2.61153 21.133 2.61153C21.1329 2.61153 21.1328 2.61153 21.1326 2.61153C21.1325 2.61153 21.1324 2.61153 21.1322 2.61153C21.1321 2.61153 21.1319 2.61153 21.1318 2.61153C21.1317 2.61153 21.1315 2.61153 21.1314 2.61153C21.1313 2.61153 21.1311 2.61153 21.131 2.61153C21.1308 2.61153 21.1307 2.61153 21.1306 2.61153C21.1304 2.61153 21.1303 2.61153 21.1302 2.61153C21.13 2.61153 21.1299 2.61153 21.1297 2.61153C21.1296 2.61153 21.1295 2.61153 21.1293 2.61153C21.1292 2.61153 21.1291 2.61153 21.1289 2.61153C21.1288 2.61153 21.1287 2.61153 21.1285 2.61153C21.1284 2.61153 21.1283 2.61153 21.1281 2.61153C21.128 2.61153 21.1278 2.61153 21.1277 2.61153C21.1276 2.61153 21.1274 2.61153 21.1273 2.61153C21.1272 2.61153 21.127 2.61153 21.1269 2.61153C21.1268 2.61153 21.1266 2.61153 21.1265 2.61153C21.1264 2.61153 21.1262 2.61153 21.1261 2.61153C21.126 2.61153 21.1258 2.61153 21.1257 2.61153C21.1256 2.61153 21.1254 2.61153 21.1253 2.61153C21.1252 2.61153 21.125 2.61153 21.1249 2.61153C21.1248 2.61153 21.1246 2.61153 21.1245 2.61153C21.1244 2.61153 21.1242 2.61153 21.1241 2.61153C21.124 2.61153 21.1238 2.61153 21.1237 2.61153C21.1236 2.61153 21.1234 2.61153 21.1233 2.61153C21.1232 2.61153 21.123 2.61153 21.1229 2.61153C21.1228 2.61153 21.1226 2.61153 21.1225 2.61153C21.1224 2.61153 21.1222 2.61153 21.1221 2.61153C21.122 2.61153 21.1218 2.61153 21.1217 2.61153C21.1216 2.61153 21.1215 2.61153 21.1213 2.61153C21.1212 2.61153 21.1211 2.61153 21.1209 2.61153C21.1208 2.61153 21.1207 2.61153 21.1205 2.61153C21.1204 2.61153 21.1203 2.61153 21.1201 2.61153C21.12 2.61153 21.1199 2.61153 21.1198 2.61153C21.1196 2.61153 21.1195 2.61153 21.1194 2.61153C21.1192 2.61153 21.1191 2.61153 21.119 2.61153C21.1188 2.61153 21.1187 2.61153 21.1186 2.61153C21.1185 2.61153 21.1183 2.61153 21.1182 2.61153C21.1181 2.61153 21.1179 2.61153 21.1178 2.61153C21.1177 2.61153 21.1175 2.61153 21.1174 2.61153C21.1173 2.61153 21.1172 2.61153 21.117 2.61153C21.1169 2.61153 21.1168 2.61153 21.1166 2.61153C21.1165 2.61153 21.1164 2.61153 21.1163 2.61153C21.1161 2.61153 21.116 2.61153 21.1159 2.61153C21.1158 2.61153 21.1156 2.61153 21.1155 2.61153C21.1154 2.61153 21.1152 2.61153 21.1151 2.61153C21.115 2.61153 21.1149 2.61153 21.1147 2.61153C21.1146 2.61153 21.1145 2.61153 21.1143 2.61153C21.1142 2.61153 21.1141 2.61153 21.114 2.61153C21.1138 2.61153 21.1137 2.61153 21.1136 2.61153C21.1135 2.61153 21.1133 2.61153 21.1132 2.61153C21.1131 2.61153 21.113 2.61153 21.1128 2.61153C21.1127 2.61153 21.1126 2.61153 21.1124 2.61153C21.1123 2.61153 21.1122 2.61153 21.1121 2.61153C21.1119 2.61153 21.1118 2.61153 21.1117 2.61153C21.1116 2.61153 21.1114 2.61153 21.1113 2.61153C21.1112 2.61153 21.1111 2.61153 21.1109 2.61153C21.1108 2.61153 21.1107 2.61153 21.1106 2.61153C21.1104 2.61153 21.1103 2.61153 21.1102 2.61153C21.1101 2.61153 21.1099 2.61153 21.1098 2.61153C21.1097 2.61153 21.1096 2.61153 21.1094 2.61153C21.1093 2.61153 21.1092 2.61153 21.1091 2.61153C21.1089 2.61153 21.1088 2.61153 21.1087 2.61153C21.1086 2.61153 21.1085 2.61153 21.1083 2.61153C21.1082 2.61153 21.1081 2.61153 21.108 2.61153C21.1078 2.61153 21.1077 2.61153 21.1076 2.61153C21.1075 2.61153 21.1073 2.61153 21.1072 2.61153C21.1071 2.61153 21.107 2.61153 21.1069 2.61153C21.1067 2.61153 21.1066 2.61153 21.1065 2.61153C21.1064 2.61153 21.1062 2.61153 21.1061 2.61153C21.106 2.61153 21.1059 2.61153 21.1058 2.61153C21.1056 2.61153 21.1055 2.61153 21.1054 2.61153C21.1053 2.61153 21.1051 2.61153 21.105 2.61153C21.1049 2.61153 21.1048 2.61153 21.1047 2.61153C21.1045 2.61153 21.1044 2.61153 21.1043 2.61153C21.1042 2.61153 21.104 2.61153 21.1039 2.61153C21.1038 2.61153 21.1037 2.61153 21.1036 2.61153C21.1034 2.61153 21.1033 2.61153 21.1032 2.61153C21.1031 2.61153 21.103 2.61153 21.1028 2.61153C21.1027 2.61153 21.1026 2.61153 21.1025 2.61153C21.1024 2.61153 21.1022 2.61153 21.1021 2.61153C21.102 2.61153 21.1019 2.61153 21.1018 2.61153C21.1016 2.61153 21.1015 2.61153 21.1014 2.61153C21.1013 2.61153 21.1012 2.61153 21.101 2.61153C21.1009 2.61153 21.1008 2.61153 21.1007 2.61153C21.1006 2.61153 21.1004 2.61153 21.1003 2.61153C21.1002 2.61153 21.1001 2.61153 21.1 2.61153C21.0998 2.61153 21.0997 2.61153 21.0996 2.61153C21.0995 2.61153 21.0994 2.61153 21.0993 2.61153C21.0991 2.61153 21.099 2.61153 21.0989 2.61153C21.0988 2.61153 21.0987 2.61153 21.0985 2.61153C21.0984 2.61153 21.0983 2.61153 21.0982 2.61153C21.0981 2.61153 21.098 2.61153 21.0978 2.61153C21.0977 2.61153 21.0976 2.61153 21.0975 2.61153C21.0974 2.61153 21.0972 2.61153 21.0971 2.61153C21.097 2.61153 21.0969 2.61153 21.0968 2.61153C21.0967 2.61153 21.0965 2.61153 21.0964 2.61153C21.0963 2.61153 21.0962 2.61153 21.0961 2.61153C21.096 2.61153 21.0958 2.61153 21.0957 2.61153C21.0956 2.61153 21.0955 2.61153 21.0954 2.61153C21.0953 2.61153 21.0951 2.61153 21.095 2.61153C21.0949 2.61153 21.0948 2.61153 21.0947 2.61153C21.0946 2.61153 21.0944 2.61153 21.0943 2.61153C21.0942 2.61153 21.0941 2.61153 21.094 2.61153C21.0939 2.61153 21.0938 2.61153 21.0936 2.61153C21.0935 2.61153 21.0934 2.61153 21.0933 2.61153C21.0932 2.61153 21.0931 2.61153 21.0929 2.61153C21.0928 2.61153 21.0927 2.61153 21.0926 2.61153C21.0925 2.61153 21.0924 2.61153 21.0923 2.61153C21.0921 2.61153 21.092 2.61153 21.0919 2.61153C21.0918 2.61153 21.0917 2.61153 21.0916 2.61153C21.0915 2.61153 21.0913 2.61153 21.0912 2.61153C21.0911 2.61153 21.091 2.61153 21.0909 2.61153C21.0908 2.61153 21.0907 2.61153 21.0905 2.61153C21.0904 2.61153 21.0903 2.61153 21.0902 2.61153C21.0901 2.61153 21.09 2.61153 21.0899 2.61153C21.0897 2.61153 21.0896 2.61153 21.0895 2.61153C21.0894 2.61153 21.0893 2.61153 21.0892 2.61153C21.0891 2.61153 21.089 2.61153 21.0888 2.61153C21.0887 2.61153 21.0886 2.61153 21.0885 2.61153C21.0884 2.61153 21.0883 2.61153 21.0882 2.61153C21.088 2.61153 21.0879 2.61153 21.0878 2.61153C21.0877 2.61153 21.0876 2.61153 21.0875 2.61153C21.0874 2.61153 21.0873 2.61153 21.0872 2.61153C21.087 2.61153 21.0869 2.61153 21.0868 2.61153C21.0867 2.61153 21.0866 2.61153 21.0865 2.61153C21.0864 2.61153 21.0863 2.61153 21.0861 2.61153C21.086 2.61153 21.0859 2.61153 21.0858 2.61153C21.0857 2.61153 21.0856 2.61153 21.0855 2.61153C21.0854 2.61153 21.0853 2.61153 21.0851 2.61153C21.085 2.61153 21.0849 2.61153 21.0848 2.61153C21.0847 2.61153 21.0846 2.61153 21.0845 2.61153C21.0844 2.61153 21.0843 2.61153 21.0841 2.61153C21.084 2.61153 21.0839 2.61153 21.0838 2.61153C21.0837 2.61153 21.0836 2.61153 21.0835 2.61153C21.0834 2.61153 21.0833 2.61153 21.0832 2.61153C21.083 2.61153 21.0829 2.61153 21.0828 2.61153C21.0827 2.61153 21.0826 2.61153 21.0825 2.61153C21.0824 2.61153 21.0823 2.61153 21.0822 2.61153C21.0821 2.61153 21.0819 2.61153 21.0818 2.61153C21.0817 2.61153 21.0816 2.61153 21.0815 2.61153C21.0814 2.61153 21.0813 2.61153 21.0812 2.61153C21.0811 2.61153 21.081 2.61153 21.0809 2.61153C21.0807 2.61153 21.0806 2.61153 21.0805 2.61153C21.0804 2.61153 21.0803 2.61153 21.0802 2.61153C21.0801 2.61153 21.08 2.61153 21.0799 2.61153C21.0798 2.61153 21.0797 2.61153 21.0795 2.61153C21.0794 2.61153 21.0793 2.61153 21.0792 2.61153C21.0791 2.61153 21.079 2.61153 21.0789 2.61153C21.0788 2.61153 21.0787 2.61153 21.0786 2.61153C21.0785 2.61153 21.0784 2.61153 21.0783 2.61153C21.0781 2.61153 21.078 2.61153 21.0779 2.61153C21.0778 2.61153 21.0777 2.61153 21.0776 2.61153C21.0775 2.61153 21.0774 2.61153 21.0773 2.61153C21.0772 2.61153 21.0771 2.61153 21.077 2.61153C21.0769 2.61153 21.0767 2.61153 21.0766 2.61153C21.0765 2.61153 21.0764 2.61153 21.0763 2.61153C21.0762 2.61153 21.0761 2.61153 21.076 2.61153C21.0759 2.61153 21.0758 2.61153 21.0757 2.61153C21.0756 2.61153 21.0755 2.61153 21.0754 2.61153C21.0753 2.61153 21.0751 2.61153 21.075 2.61153C21.0749 2.61153 21.0748 2.61153 21.0747 2.61153C21.0746 2.61153 21.0745 2.61153 21.0744 2.61153C21.0743 2.61153 21.0742 2.61153 21.0741 2.61153C21.074 2.61153 21.0739 2.61153 21.0738 2.61153C21.0737 2.61153 21.0736 2.61153 21.0735 2.61153C21.0733 2.61153 21.0732 2.61153 21.0731 2.61153C21.073 2.61153 21.0729 2.61153 21.0728 2.61153C21.0727 2.61153 21.0726 2.61153 21.0725 2.61153C21.0724 2.61153 21.0723 2.61153 21.0722 2.61153C21.0721 2.61153 21.072 2.61153 21.0719 2.61153C21.0718 2.61153 21.0717 2.61153 21.0716 2.61153C21.0715 2.61153 21.0714 2.61153 21.0712 2.61153C21.0711 2.61153 21.071 2.61153 21.0709 2.61153C21.0708 2.61153 21.0707 2.61153 21.0706 2.61153C21.0705 2.61153 21.0704 2.61153 21.0703 2.61153C21.0702 2.61153 21.0701 2.61153 21.07 2.61153C21.0699 2.61153 21.0698 2.61153 21.0697 2.61153C21.0696 2.61153 21.0695 2.61153 21.0694 2.61153C21.0693 2.61153 21.0692 2.61153 21.0691 2.61153C21.069 2.61153 21.0689 2.61153 21.0688 2.61153C21.0687 2.61153 21.0685 2.61153 21.0684 2.61153C21.0683 2.61153 21.0682 2.61153 21.0681 2.61153C21.068 2.61153 21.0679 2.61153 21.0678 2.61153C21.0677 2.61153 21.0676 2.61153 21.0675 2.61153C21.0674 2.61153 21.0673 2.61153 21.0672 2.61153C21.0671 2.61153 21.067 2.61153 21.0669 2.61153C21.0668 2.61153 21.0667 2.61153 21.0666 2.61153C21.0665 2.61153 21.0664 2.61153 21.0663 2.61153C21.0662 2.61153 21.0661 2.61153 21.066 2.61153C21.0659 2.61153 21.0658 2.61153 21.0657 2.61153C21.0656 2.61153 21.0655 2.61153 21.0654 2.61153C21.0653 2.61153 21.0652 2.61153 21.0651 2.61153C21.065 2.61153 21.0649 2.61153 21.0648 2.61153C21.0647 2.61153 21.0646 2.61153 21.0645 2.61153C21.0644 2.61153 21.0642 2.61153 21.0641 2.61153C21.064 2.61153 21.0639 2.61153 21.0638 2.61153C21.0637 2.61153 21.0636 2.61153 21.0635 2.61153C21.0634 2.61153 21.0633 2.61153 21.0632 2.61153C21.0631 2.61153 21.063 2.61153 21.0629 2.61153C21.0628 2.61153 21.0627 2.61153 21.0626 2.61153C21.0625 2.61153 21.0624 2.61153 21.0623 2.61153C21.0622 2.61153 21.0621 2.61153 21.062 2.61153C21.0619 2.61153 21.0618 2.61153 21.0617 2.61153C21.0616 2.61153 21.0615 2.61153 21.0614 2.61153C21.0613 2.61153 21.0612 2.61153 21.0611 2.61153C21.061 2.61153 21.0609 2.61153 21.0608 2.61153C21.0607 2.61153 21.0606 2.61153 21.0605 2.61153C21.0604 2.61153 21.0603 2.61153 21.0602 2.61153C21.0601 2.61153 21.06 2.61153 21.0599 2.61153C21.0598 2.61153 21.0597 2.61153 21.0596 2.61153C21.0595 2.61153 21.0594 2.61153 21.0593 2.61153C21.0592 2.61153 21.0591 2.61153 21.059 2.61153C21.0589 2.61153 21.0588 2.61153 21.0587 2.61153C21.0586 2.61153 21.0585 2.61153 21.0584 2.61153C21.0583 2.61153 21.0582 2.61153 21.0581 2.61153C21.058 2.61153 21.0579 2.61153 21.0578 2.61153C21.0577 2.61153 21.0576 2.61153 21.0575 2.61153C21.0574 2.61153 21.0573 2.61153 21.0572 2.61153C21.0571 2.61153 21.057 2.61153 21.0569 2.61153C21.0569 2.61153 21.0568 2.61153 21.0567 2.61153C21.0566 2.61153 21.0565 2.61153 21.0564 2.61153C21.0563 2.61153 21.0562 2.61153 21.0561 2.61153C21.056 2.61153 21.0559 2.61153 21.0558 2.61153C21.0557 2.61153 21.0556 2.61153 21.0555 2.61153C21.0554 2.61153 21.0553 2.61153 21.0552 2.61153C21.0551 2.61153 21.055 2.61153 21.0549 2.61153C21.0548 2.61153 21.0547 2.61153 21.0546 2.61153C21.0545 2.61153 21.0544 2.61153 21.0543 2.61153C21.0542 2.61153 21.0541 2.61153 21.054 2.61153C21.0539 2.61153 21.0538 2.61153 21.0537 2.61153C21.0536 2.61153 21.0535 2.61153 21.0534 2.61153C21.0533 2.61153 21.0532 2.61153 21.0531 2.61153C21.053 2.61153 21.0529 2.61153 21.0528 2.61153C21.0527 2.61153 21.0526 2.61153 21.0525 2.61153C21.0524 2.61153 21.0524 2.61153 21.0523 2.61153C21.0522 2.61153 21.0521 2.61153 21.052 2.61153C21.0519 2.61153 21.0518 2.61153 21.0517 2.61153C21.0516 2.61153 21.0515 2.61153 21.0514 2.61153C21.0513 2.61153 21.0512 2.61153 21.0511 2.61153C21.051 2.61153 21.0509 2.61153 21.0508 2.61153C21.0507 2.61153 21.0506 2.61153 21.0505 2.61153C21.0504 2.61153 21.0503 2.61153 21.0502 2.61153C21.0501 2.61153 21.05 2.61153 21.0499 2.61153C21.0498 2.61153 21.0497 2.61153 21.0496 2.61153C21.0496 2.61153 21.0495 2.61153 21.0494 2.61153C21.0493 2.61153 21.0492 2.61153 21.0491 2.61153C21.049 2.61153 21.0489 2.61153 21.0488 2.61153C21.0487 2.61153 21.0486 2.61153 21.0485 2.61153C21.0484 2.61153 21.0483 2.61153 21.0482 2.61153C21.0481 2.61153 21.048 2.61153 21.0479 2.61153C21.0478 2.61153 21.0477 2.61153 21.0476 2.61153C21.0475 2.61153 21.0474 2.61153 21.0473 2.61153C21.0473 2.61153 21.0472 2.61153 21.0471 2.61153C21.047 2.61153 21.0469 2.61153 21.0468 2.61153C21.0467 2.61153 21.0466 2.61153 21.0465 2.61153C21.0464 2.61153 21.0463 2.61153 21.0462 2.61153C21.0461 2.61153 21.046 2.61153 21.0459 2.61153C21.0458 2.61153 21.0457 2.61153 21.0456 2.61153C21.0455 2.61153 21.0454 2.61153 21.0454 2.61153C21.0453 2.61153 21.0452 2.61153 21.0451 2.61153C21.045 2.61153 21.0449 2.61153 21.0448 2.61153C21.0447 2.61153 21.0446 2.61153 21.0445 2.61153C21.0444 2.61153 21.0443 2.61153 21.0442 2.61153C21.0441 2.61153 21.044 2.61153 21.0439 2.61153C21.0438 2.61153 21.0437 2.61153 21.0437 2.61153C21.0436 2.61153 21.0435 2.61153 21.0434 2.61153C21.0433 2.61153 21.0432 2.61153 21.0431 2.61153C21.043 2.61153 21.0429 2.61153 21.0428 2.61153C21.0427 2.61153 21.0426 2.61153 21.0425 2.61153C21.0424 2.61153 21.0423 2.61153 21.0422 2.61153C21.0421 2.61153 21.0421 2.61153 21.042 2.61153C21.0419 2.61153 21.0418 2.61153 21.0417 2.61153C21.0416 2.61153 21.0415 2.61153 21.0414 2.61153C21.0413 2.61153 21.0412 2.61153 21.0411 2.61153C21.041 2.61153 21.0409 2.61153 21.0408 2.61153C21.0407 2.61153 21.0406 2.61153 21.0406 2.61153C21.0405 2.61153 21.0404 2.61153 21.0403 2.61153C21.0402 2.61153 21.0401 2.61153 21.04 2.61153C21.0399 2.61153 21.0398 2.61153 21.0397 2.61153C21.0396 2.61153 21.0395 2.61153 21.0394 2.61153C21.0393 2.61153 21.0392 2.61153 21.0392 2.61153C21.0391 2.61153 21.039 2.61153 21.0389 2.61153C21.0388 2.61153 21.0387 2.61153 21.0386 2.61153C21.0385 2.61153 21.0384 2.61153 21.0383 2.61153C21.0382 2.61153 21.0381 2.61153 21.038 2.61153C21.0379 2.61153 21.0379 2.61153 21.0378 2.61153C21.0377 2.61153 21.0376 2.61153 21.0375 2.61153C21.0374 2.61153 21.0373 2.61153 21.0372 2.61153C21.0371 2.61153 21.037 2.61153 21.0369 2.61153C21.0368 2.61153 21.0367 2.61153 21.0366 2.61153C21.0366 2.61153 21.0365 2.61153 21.0364 2.61153C21.0363 2.61153 21.0362 2.61153 21.0361 2.61153C21.036 2.61153 21.0359 2.61153 21.0358 2.61153C21.0357 2.61153 21.0356 2.61153 21.0355 2.61153C21.0354 2.61153 21.0354 2.61153 21.0353 2.61153C21.0352 2.61153 21.0351 2.61153 21.035 2.61153C21.0349 2.61153 21.0348 2.61153 21.0347 2.61153C21.0346 2.61153 21.0345 2.61153 21.0344 2.61153C21.0343 2.61153 21.0342 2.61153 21.0342 2.61153C21.0341 2.61153 21.034 2.61153 21.0339 2.61153C21.0338 2.61153 21.0337 2.61153 21.0336 2.61153C21.0335 2.61153 21.0334 2.61153 21.0333 2.61153C21.0332 2.61153 21.0331 2.61153 21.0331 2.61153C21.033 2.61153 21.0329 2.61153 21.0328 2.61153C21.0327 2.61153 21.0326 2.61153 21.0325 2.61153C21.0324 2.61153 21.0323 2.61153 21.0322 2.61153C21.0321 2.61153 21.032 2.61153 21.032 2.61153C21.0319 2.61153 21.0318 2.61153 21.0317 2.61153C21.0316 2.61153 21.0315 2.61153 21.0314 2.61153C21.0313 2.61153 21.0312 2.61153 21.0311 2.61153C21.031 2.61153 21.0309 2.61153 21.0309 2.61153C21.0308 2.61153 21.0307 2.61153 21.0306 2.61153C21.0305 2.61153 21.0304 2.61153 21.0303 2.61153C21.0302 2.61153 21.0301 2.61153 21.03 2.61153C21.0299 2.61153 21.0299 2.61153 21.0298 2.61153C21.0297 2.61153 21.0296 2.61153 21.0295 2.61153C21.0294 2.61153 21.0293 2.61153 21.0292 2.61153C21.0291 2.61153 21.029 2.61153 21.0289 2.61153C21.0288 2.61153 21.0288 2.61153 21.0287 2.61153C21.0286 2.61153 21.0285 2.61153 21.0284 2.61153C21.0283 2.61153 21.0282 2.61153 21.0281 2.61153C21.028 2.61153 21.0279 2.61153 21.0278 2.61153C21.0278 2.61153 21.0277 2.61153 21.0276 2.61153C21.0275 2.61153 21.0274 2.61153 21.0273 2.61153C21.0272 2.61153 21.0271 2.61153 21.027 2.61153C21.0269 2.61153 21.0268 2.61153 21.0268 2.61153C21.0267 2.61153 21.0266 2.61153 21.0265 2.61153C21.0264 2.61153 21.0263 2.61153 21.0262 2.61153C21.0261 2.61153 21.026 2.61153 21.0259 2.61153C21.0259 2.61153 21.0258 2.61153 21.0257 2.61153C21.0256 2.61153 21.0255 2.61153 21.0254 2.61153C21.0253 2.61153 21.0252 2.61153 21.0251 2.61153C21.025 2.61153 21.0249 2.61153 21.0249 2.61153C21.0248 2.61153 21.0247 2.61153 21.0246 2.61153C21.0245 2.61153 21.0244 2.61153 21.0243 2.61153C21.0242 2.61153 21.0241 2.61153 21.024 2.61153C21.024 2.61153 21.0239 2.61153 21.0238 2.61153C21.0237 2.61153 21.0236 2.61153 21.0235 2.61153C21.0234 2.61153 21.0233 2.61153 21.0232 2.61153C21.0231 2.61153 21.023 2.61153 21.023 2.61153C21.0229 2.61153 21.0228 2.61153 21.0227 2.61153C21.0226 2.61153 21.0225 2.61153 21.0224 2.61153C21.0223 2.61153 21.0222 2.61153 21.0221 2.61153C21.0221 2.61153 21.022 2.61153 21.0219 2.61153C21.0218 2.61153 21.0217 2.61153 21.0216 2.61153C21.0215 2.61153 21.0214 2.61153 21.0213 2.61153C21.0212 2.61153 21.0212 2.61153 21.0211 2.61153C21.021 2.61153 21.0209 2.61153 21.0208 2.61153C21.0207 2.61153 21.0206 2.61153 21.0205 2.61153C21.0204 2.61153 21.0203 2.61153 21.0203 2.61153C21.0202 2.61153 21.0201 2.61153 21.02 2.61153C21.0199 2.61153 21.0198 2.61153 21.0197 2.61153C21.0196 2.61153 21.0195 2.61153 21.0194 2.61153C21.0194 2.61153 21.0193 2.61153 21.0192 2.61153C21.0191 2.61153 21.019 2.61153 21.0189 2.61153C21.0188 2.61153 21.0187 2.61153 21.0186 2.61153C21.0185 2.61153 21.0185 2.61153 21.0184 2.61153C21.0183 2.61153 21.0182 2.61153 21.0181 2.61153C21.018 2.61153 21.0179 2.61153 21.0178 2.61153C21.0177 2.61153 21.0176 2.61153 21.0176 2.61153C21.0175 2.61153 21.0174 2.61153 21.0173 2.61153C21.0172 2.61153 21.0171 2.61153 21.017 2.61153C21.0169 2.61153 21.0168 2.61153 21.0167 2.61153C21.0167 2.61153 21.0166 2.61153 21.0165 2.61153V2.96153C21.0166 2.96153 21.0167 2.96153 21.0167 2.96153C21.0168 2.96153 21.0169 2.96153 21.017 2.96153C21.0171 2.96153 21.0172 2.96153 21.0173 2.96153C21.0174 2.96153 21.0175 2.96153 21.0176 2.96153C21.0176 2.96153 21.0177 2.96153 21.0178 2.96153C21.0179 2.96153 21.018 2.96153 21.0181 2.96153C21.0182 2.96153 21.0183 2.96153 21.0184 2.96153C21.0185 2.96153 21.0185 2.96153 21.0186 2.96153C21.0187 2.96153 21.0188 2.96153 21.0189 2.96153C21.019 2.96153 21.0191 2.96153 21.0192 2.96153C21.0193 2.96153 21.0194 2.96153 21.0194 2.96153C21.0195 2.96153 21.0196 2.96153 21.0197 2.96153C21.0198 2.96153 21.0199 2.96153 21.02 2.96153C21.0201 2.96153 21.0202 2.96153 21.0203 2.96153C21.0203 2.96153 21.0204 2.96153 21.0205 2.96153C21.0206 2.96153 21.0207 2.96153 21.0208 2.96153C21.0209 2.96153 21.021 2.96153 21.0211 2.96153C21.0212 2.96153 21.0212 2.96153 21.0213 2.96153C21.0214 2.96153 21.0215 2.96153 21.0216 2.96153C21.0217 2.96153 21.0218 2.96153 21.0219 2.96153C21.022 2.96153 21.0221 2.96153 21.0221 2.96153C21.0222 2.96153 21.0223 2.96153 21.0224 2.96153C21.0225 2.96153 21.0226 2.96153 21.0227 2.96153C21.0228 2.96153 21.0229 2.96153 21.023 2.96153C21.023 2.96153 21.0231 2.96153 21.0232 2.96153C21.0233 2.96153 21.0234 2.96153 21.0235 2.96153C21.0236 2.96153 21.0237 2.96153 21.0238 2.96153C21.0239 2.96153 21.024 2.96153 21.024 2.96153C21.0241 2.96153 21.0242 2.96153 21.0243 2.96153C21.0244 2.96153 21.0245 2.96153 21.0246 2.96153C21.0247 2.96153 21.0248 2.96153 21.0249 2.96153C21.0249 2.96153 21.025 2.96153 21.0251 2.96153C21.0252 2.96153 21.0253 2.96153 21.0254 2.96153C21.0255 2.96153 21.0256 2.96153 21.0257 2.96153C21.0258 2.96153 21.0259 2.96153 21.0259 2.96153C21.026 2.96153 21.0261 2.96153 21.0262 2.96153C21.0263 2.96153 21.0264 2.96153 21.0265 2.96153C21.0266 2.96153 21.0267 2.96153 21.0268 2.96153C21.0268 2.96153 21.0269 2.96153 21.027 2.96153C21.0271 2.96153 21.0272 2.96153 21.0273 2.96153C21.0274 2.96153 21.0275 2.96153 21.0276 2.96153C21.0277 2.96153 21.0278 2.96153 21.0278 2.96153C21.0279 2.96153 21.028 2.96153 21.0281 2.96153C21.0282 2.96153 21.0283 2.96153 21.0284 2.96153C21.0285 2.96153 21.0286 2.96153 21.0287 2.96153C21.0288 2.96153 21.0288 2.96153 21.0289 2.96153C21.029 2.96153 21.0291 2.96153 21.0292 2.96153C21.0293 2.96153 21.0294 2.96153 21.0295 2.96153C21.0296 2.96153 21.0297 2.96153 21.0298 2.96153C21.0299 2.96153 21.0299 2.96153 21.03 2.96153C21.0301 2.96153 21.0302 2.96153 21.0303 2.96153C21.0304 2.96153 21.0305 2.96153 21.0306 2.96153C21.0307 2.96153 21.0308 2.96153 21.0309 2.96153C21.0309 2.96153 21.031 2.96153 21.0311 2.96153C21.0312 2.96153 21.0313 2.96153 21.0314 2.96153C21.0315 2.96153 21.0316 2.96153 21.0317 2.96153C21.0318 2.96153 21.0319 2.96153 21.032 2.96153C21.032 2.96153 21.0321 2.96153 21.0322 2.96153C21.0323 2.96153 21.0324 2.96153 21.0325 2.96153C21.0326 2.96153 21.0327 2.96153 21.0328 2.96153C21.0329 2.96153 21.033 2.96153 21.0331 2.96153C21.0331 2.96153 21.0332 2.96153 21.0333 2.96153C21.0334 2.96153 21.0335 2.96153 21.0336 2.96153C21.0337 2.96153 21.0338 2.96153 21.0339 2.96153C21.034 2.96153 21.0341 2.96153 21.0342 2.96153C21.0342 2.96153 21.0343 2.96153 21.0344 2.96153C21.0345 2.96153 21.0346 2.96153 21.0347 2.96153C21.0348 2.96153 21.0349 2.96153 21.035 2.96153C21.0351 2.96153 21.0352 2.96153 21.0353 2.96153C21.0354 2.96153 21.0354 2.96153 21.0355 2.96153C21.0356 2.96153 21.0357 2.96153 21.0358 2.96153C21.0359 2.96153 21.036 2.96153 21.0361 2.96153C21.0362 2.96153 21.0363 2.96153 21.0364 2.96153C21.0365 2.96153 21.0366 2.96153 21.0366 2.96153C21.0367 2.96153 21.0368 2.96153 21.0369 2.96153C21.037 2.96153 21.0371 2.96153 21.0372 2.96153C21.0373 2.96153 21.0374 2.96153 21.0375 2.96153C21.0376 2.96153 21.0377 2.96153 21.0378 2.96153C21.0379 2.96153 21.0379 2.96153 21.038 2.96153C21.0381 2.96153 21.0382 2.96153 21.0383 2.96153C21.0384 2.96153 21.0385 2.96153 21.0386 2.96153C21.0387 2.96153 21.0388 2.96153 21.0389 2.96153C21.039 2.96153 21.0391 2.96153 21.0392 2.96153C21.0392 2.96153 21.0393 2.96153 21.0394 2.96153C21.0395 2.96153 21.0396 2.96153 21.0397 2.96153C21.0398 2.96153 21.0399 2.96153 21.04 2.96153C21.0401 2.96153 21.0402 2.96153 21.0403 2.96153C21.0404 2.96153 21.0405 2.96153 21.0406 2.96153C21.0406 2.96153 21.0407 2.96153 21.0408 2.96153C21.0409 2.96153 21.041 2.96153 21.0411 2.96153C21.0412 2.96153 21.0413 2.96153 21.0414 2.96153C21.0415 2.96153 21.0416 2.96153 21.0417 2.96153C21.0418 2.96153 21.0419 2.96153 21.042 2.96153C21.0421 2.96153 21.0421 2.96153 21.0422 2.96153C21.0423 2.96153 21.0424 2.96153 21.0425 2.96153C21.0426 2.96153 21.0427 2.96153 21.0428 2.96153C21.0429 2.96153 21.043 2.96153 21.0431 2.96153C21.0432 2.96153 21.0433 2.96153 21.0434 2.96153C21.0435 2.96153 21.0436 2.96153 21.0437 2.96153C21.0437 2.96153 21.0438 2.96153 21.0439 2.96153C21.044 2.96153 21.0441 2.96153 21.0442 2.96153C21.0443 2.96153 21.0444 2.96153 21.0445 2.96153C21.0446 2.96153 21.0447 2.96153 21.0448 2.96153C21.0449 2.96153 21.045 2.96153 21.0451 2.96153C21.0452 2.96153 21.0453 2.96153 21.0454 2.96153C21.0454 2.96153 21.0455 2.96153 21.0456 2.96153C21.0457 2.96153 21.0458 2.96153 21.0459 2.96153C21.046 2.96153 21.0461 2.96153 21.0462 2.96153C21.0463 2.96153 21.0464 2.96153 21.0465 2.96153C21.0466 2.96153 21.0467 2.96153 21.0468 2.96153C21.0469 2.96153 21.047 2.96153 21.0471 2.96153C21.0472 2.96153 21.0473 2.96153 21.0473 2.96153C21.0474 2.96153 21.0475 2.96153 21.0476 2.96153C21.0477 2.96153 21.0478 2.96153 21.0479 2.96153C21.048 2.96153 21.0481 2.96153 21.0482 2.96153C21.0483 2.96153 21.0484 2.96153 21.0485 2.96153C21.0486 2.96153 21.0487 2.96153 21.0488 2.96153C21.0489 2.96153 21.049 2.96153 21.0491 2.96153C21.0492 2.96153 21.0493 2.96153 21.0494 2.96153C21.0495 2.96153 21.0496 2.96153 21.0496 2.96153C21.0497 2.96153 21.0498 2.96153 21.0499 2.96153C21.05 2.96153 21.0501 2.96153 21.0502 2.96153C21.0503 2.96153 21.0504 2.96153 21.0505 2.96153C21.0506 2.96153 21.0507 2.96153 21.0508 2.96153C21.0509 2.96153 21.051 2.96153 21.0511 2.96153C21.0512 2.96153 21.0513 2.96153 21.0514 2.96153C21.0515 2.96153 21.0516 2.96153 21.0517 2.96153C21.0518 2.96153 21.0519 2.96153 21.052 2.96153C21.0521 2.96153 21.0522 2.96153 21.0523 2.96153C21.0524 2.96153 21.0524 2.96153 21.0525 2.96153C21.0526 2.96153 21.0527 2.96153 21.0528 2.96153C21.0529 2.96153 21.053 2.96153 21.0531 2.96153C21.0532 2.96153 21.0533 2.96153 21.0534 2.96153C21.0535 2.96153 21.0536 2.96153 21.0537 2.96153C21.0538 2.96153 21.0539 2.96153 21.054 2.96153C21.0541 2.96153 21.0542 2.96153 21.0543 2.96153C21.0544 2.96153 21.0545 2.96153 21.0546 2.96153C21.0547 2.96153 21.0548 2.96153 21.0549 2.96153C21.055 2.96153 21.0551 2.96153 21.0552 2.96153C21.0553 2.96153 21.0554 2.96153 21.0555 2.96153C21.0556 2.96153 21.0557 2.96153 21.0558 2.96153C21.0559 2.96153 21.056 2.96153 21.0561 2.96153C21.0562 2.96153 21.0563 2.96153 21.0564 2.96153C21.0565 2.96153 21.0566 2.96153 21.0567 2.96153C21.0568 2.96153 21.0569 2.96153 21.0569 2.96153C21.057 2.96153 21.0571 2.96153 21.0572 2.96153C21.0573 2.96153 21.0574 2.96153 21.0575 2.96153C21.0576 2.96153 21.0577 2.96153 21.0578 2.96153C21.0579 2.96153 21.058 2.96153 21.0581 2.96153C21.0582 2.96153 21.0583 2.96153 21.0584 2.96153C21.0585 2.96153 21.0586 2.96153 21.0587 2.96153C21.0588 2.96153 21.0589 2.96153 21.059 2.96153C21.0591 2.96153 21.0592 2.96153 21.0593 2.96153C21.0594 2.96153 21.0595 2.96153 21.0596 2.96153C21.0597 2.96153 21.0598 2.96153 21.0599 2.96153C21.06 2.96153 21.0601 2.96153 21.0602 2.96153C21.0603 2.96153 21.0604 2.96153 21.0605 2.96153C21.0606 2.96153 21.0607 2.96153 21.0608 2.96153C21.0609 2.96153 21.061 2.96153 21.0611 2.96153C21.0612 2.96153 21.0613 2.96153 21.0614 2.96153C21.0615 2.96153 21.0616 2.96153 21.0617 2.96153C21.0618 2.96153 21.0619 2.96153 21.062 2.96153C21.0621 2.96153 21.0622 2.96153 21.0623 2.96153C21.0624 2.96153 21.0625 2.96153 21.0626 2.96153C21.0627 2.96153 21.0628 2.96153 21.0629 2.96153C21.063 2.96153 21.0631 2.96153 21.0632 2.96153C21.0633 2.96153 21.0634 2.96153 21.0635 2.96153C21.0636 2.96153 21.0637 2.96153 21.0638 2.96153C21.0639 2.96153 21.064 2.96153 21.0641 2.96153C21.0642 2.96153 21.0644 2.96153 21.0645 2.96153C21.0646 2.96153 21.0647 2.96153 21.0648 2.96153C21.0649 2.96153 21.065 2.96153 21.0651 2.96153C21.0652 2.96153 21.0653 2.96153 21.0654 2.96153C21.0655 2.96153 21.0656 2.96153 21.0657 2.96153C21.0658 2.96153 21.0659 2.96153 21.066 2.96153C21.0661 2.96153 21.0662 2.96153 21.0663 2.96153C21.0664 2.96153 21.0665 2.96153 21.0666 2.96153C21.0667 2.96153 21.0668 2.96153 21.0669 2.96153C21.067 2.96153 21.0671 2.96153 21.0672 2.96153C21.0673 2.96153 21.0674 2.96153 21.0675 2.96153C21.0676 2.96153 21.0677 2.96153 21.0678 2.96153C21.0679 2.96153 21.068 2.96153 21.0681 2.96153C21.0682 2.96153 21.0683 2.96153 21.0684 2.96153C21.0685 2.96153 21.0687 2.96153 21.0688 2.96153C21.0689 2.96153 21.069 2.96153 21.0691 2.96153C21.0692 2.96153 21.0693 2.96153 21.0694 2.96153C21.0695 2.96153 21.0696 2.96153 21.0697 2.96153C21.0698 2.96153 21.0699 2.96153 21.07 2.96153C21.0701 2.96153 21.0702 2.96153 21.0703 2.96153C21.0704 2.96153 21.0705 2.96153 21.0706 2.96153C21.0707 2.96153 21.0708 2.96153 21.0709 2.96153C21.071 2.96153 21.0711 2.96153 21.0712 2.96153C21.0714 2.96153 21.0715 2.96153 21.0716 2.96153C21.0717 2.96153 21.0718 2.96153 21.0719 2.96153C21.072 2.96153 21.0721 2.96153 21.0722 2.96153C21.0723 2.96153 21.0724 2.96153 21.0725 2.96153C21.0726 2.96153 21.0727 2.96153 21.0728 2.96153C21.0729 2.96153 21.073 2.96153 21.0731 2.96153C21.0732 2.96153 21.0733 2.96153 21.0735 2.96153C21.0736 2.96153 21.0737 2.96153 21.0738 2.96153C21.0739 2.96153 21.074 2.96153 21.0741 2.96153C21.0742 2.96153 21.0743 2.96153 21.0744 2.96153C21.0745 2.96153 21.0746 2.96153 21.0747 2.96153C21.0748 2.96153 21.0749 2.96153 21.075 2.96153C21.0751 2.96153 21.0753 2.96153 21.0754 2.96153C21.0755 2.96153 21.0756 2.96153 21.0757 2.96153C21.0758 2.96153 21.0759 2.96153 21.076 2.96153C21.0761 2.96153 21.0762 2.96153 21.0763 2.96153C21.0764 2.96153 21.0765 2.96153 21.0766 2.96153C21.0767 2.96153 21.0769 2.96153 21.077 2.96153C21.0771 2.96153 21.0772 2.96153 21.0773 2.96153C21.0774 2.96153 21.0775 2.96153 21.0776 2.96153C21.0777 2.96153 21.0778 2.96153 21.0779 2.96153C21.078 2.96153 21.0781 2.96153 21.0783 2.96153C21.0784 2.96153 21.0785 2.96153 21.0786 2.96153C21.0787 2.96153 21.0788 2.96153 21.0789 2.96153C21.079 2.96153 21.0791 2.96153 21.0792 2.96153C21.0793 2.96153 21.0794 2.96153 21.0795 2.96153C21.0797 2.96153 21.0798 2.96153 21.0799 2.96153C21.08 2.96153 21.0801 2.96153 21.0802 2.96153C21.0803 2.96153 21.0804 2.96153 21.0805 2.96153C21.0806 2.96153 21.0807 2.96153 21.0809 2.96153C21.081 2.96153 21.0811 2.96153 21.0812 2.96153C21.0813 2.96153 21.0814 2.96153 21.0815 2.96153C21.0816 2.96153 21.0817 2.96153 21.0818 2.96153C21.0819 2.96153 21.0821 2.96153 21.0822 2.96153C21.0823 2.96153 21.0824 2.96153 21.0825 2.96153C21.0826 2.96153 21.0827 2.96153 21.0828 2.96153C21.0829 2.96153 21.083 2.96153 21.0832 2.96153C21.0833 2.96153 21.0834 2.96153 21.0835 2.96153C21.0836 2.96153 21.0837 2.96153 21.0838 2.96153C21.0839 2.96153 21.084 2.96153 21.0841 2.96153C21.0843 2.96153 21.0844 2.96153 21.0845 2.96153C21.0846 2.96153 21.0847 2.96153 21.0848 2.96153C21.0849 2.96153 21.085 2.96153 21.0851 2.96153C21.0853 2.96153 21.0854 2.96153 21.0855 2.96153C21.0856 2.96153 21.0857 2.96153 21.0858 2.96153C21.0859 2.96153 21.086 2.96153 21.0861 2.96153C21.0863 2.96153 21.0864 2.96153 21.0865 2.96153C21.0866 2.96153 21.0867 2.96153 21.0868 2.96153C21.0869 2.96153 21.087 2.96153 21.0872 2.96153C21.0873 2.96153 21.0874 2.96153 21.0875 2.96153C21.0876 2.96153 21.0877 2.96153 21.0878 2.96153C21.0879 2.96153 21.088 2.96153 21.0882 2.96153C21.0883 2.96153 21.0884 2.96153 21.0885 2.96153C21.0886 2.96153 21.0887 2.96153 21.0888 2.96153C21.089 2.96153 21.0891 2.96153 21.0892 2.96153C21.0893 2.96153 21.0894 2.96153 21.0895 2.96153C21.0896 2.96153 21.0897 2.96153 21.0899 2.96153C21.09 2.96153 21.0901 2.96153 21.0902 2.96153C21.0903 2.96153 21.0904 2.96153 21.0905 2.96153C21.0907 2.96153 21.0908 2.96153 21.0909 2.96153C21.091 2.96153 21.0911 2.96153 21.0912 2.96153C21.0913 2.96153 21.0915 2.96153 21.0916 2.96153C21.0917 2.96153 21.0918 2.96153 21.0919 2.96153C21.092 2.96153 21.0921 2.96153 21.0923 2.96153C21.0924 2.96153 21.0925 2.96153 21.0926 2.96153C21.0927 2.96153 21.0928 2.96153 21.0929 2.96153C21.0931 2.96153 21.0932 2.96153 21.0933 2.96153C21.0934 2.96153 21.0935 2.96153 21.0936 2.96153C21.0938 2.96153 21.0939 2.96153 21.094 2.96153C21.0941 2.96153 21.0942 2.96153 21.0943 2.96153C21.0944 2.96153 21.0946 2.96153 21.0947 2.96153C21.0948 2.96153 21.0949 2.96153 21.095 2.96153C21.0951 2.96153 21.0953 2.96153 21.0954 2.96153C21.0955 2.96153 21.0956 2.96153 21.0957 2.96153C21.0958 2.96153 21.096 2.96153 21.0961 2.96153C21.0962 2.96153 21.0963 2.96153 21.0964 2.96153C21.0965 2.96153 21.0967 2.96153 21.0968 2.96153C21.0969 2.96153 21.097 2.96153 21.0971 2.96153C21.0972 2.96153 21.0974 2.96153 21.0975 2.96153C21.0976 2.96153 21.0977 2.96153 21.0978 2.96153C21.098 2.96153 21.0981 2.96153 21.0982 2.96153C21.0983 2.96153 21.0984 2.96153 21.0985 2.96153C21.0987 2.96153 21.0988 2.96153 21.0989 2.96153C21.099 2.96153 21.0991 2.96153 21.0993 2.96153C21.0994 2.96153 21.0995 2.96153 21.0996 2.96153C21.0997 2.96153 21.0998 2.96153 21.1 2.96153C21.1001 2.96153 21.1002 2.96153 21.1003 2.96153C21.1004 2.96153 21.1006 2.96153 21.1007 2.96153C21.1008 2.96153 21.1009 2.96153 21.101 2.96153C21.1012 2.96153 21.1013 2.96153 21.1014 2.96153C21.1015 2.96153 21.1016 2.96153 21.1018 2.96153C21.1019 2.96153 21.102 2.96153 21.1021 2.96153C21.1022 2.96153 21.1024 2.96153 21.1025 2.96153C21.1026 2.96153 21.1027 2.96153 21.1028 2.96153C21.103 2.96153 21.1031 2.96153 21.1032 2.96153C21.1033 2.96153 21.1034 2.96153 21.1036 2.96153C21.1037 2.96153 21.1038 2.96153 21.1039 2.96153C21.104 2.96153 21.1042 2.96153 21.1043 2.96153C21.1044 2.96153 21.1045 2.96153 21.1047 2.96153C21.1048 2.96153 21.1049 2.96153 21.105 2.96153C21.1051 2.96153 21.1053 2.96153 21.1054 2.96153C21.1055 2.96153 21.1056 2.96153 21.1058 2.96153C21.1059 2.96153 21.106 2.96153 21.1061 2.96153C21.1062 2.96153 21.1064 2.96153 21.1065 2.96153C21.1066 2.96153 21.1067 2.96153 21.1069 2.96153C21.107 2.96153 21.1071 2.96153 21.1072 2.96153C21.1073 2.96153 21.1075 2.96153 21.1076 2.96153C21.1077 2.96153 21.1078 2.96153 21.108 2.96153C21.1081 2.96153 21.1082 2.96153 21.1083 2.96153C21.1085 2.96153 21.1086 2.96153 21.1087 2.96153C21.1088 2.96153 21.1089 2.96153 21.1091 2.96153C21.1092 2.96153 21.1093 2.96153 21.1094 2.96153C21.1096 2.96153 21.1097 2.96153 21.1098 2.96153C21.1099 2.96153 21.1101 2.96153 21.1102 2.96153C21.1103 2.96153 21.1104 2.96153 21.1106 2.96153C21.1107 2.96153 21.1108 2.96153 21.1109 2.96153C21.1111 2.96153 21.1112 2.96153 21.1113 2.96153C21.1114 2.96153 21.1116 2.96153 21.1117 2.96153C21.1118 2.96153 21.1119 2.96153 21.1121 2.96153C21.1122 2.96153 21.1123 2.96153 21.1124 2.96153C21.1126 2.96153 21.1127 2.96153 21.1128 2.96153C21.113 2.96153 21.1131 2.96153 21.1132 2.96153C21.1133 2.96153 21.1135 2.96153 21.1136 2.96153C21.1137 2.96153 21.1138 2.96153 21.114 2.96153C21.1141 2.96153 21.1142 2.96153 21.1143 2.96153C21.1145 2.96153 21.1146 2.96153 21.1147 2.96153C21.1149 2.96153 21.115 2.96153 21.1151 2.96153C21.1152 2.96153 21.1154 2.96153 21.1155 2.96153C21.1156 2.96153 21.1158 2.96153 21.1159 2.96153C21.116 2.96153 21.1161 2.96153 21.1163 2.96153C21.1164 2.96153 21.1165 2.96153 21.1166 2.96153C21.1168 2.96153 21.1169 2.96153 21.117 2.96153C21.1172 2.96153 21.1173 2.96153 21.1174 2.96153C21.1175 2.96153 21.1177 2.96153 21.1178 2.96153C21.1179 2.96153 21.1181 2.96153 21.1182 2.96153C21.1183 2.96153 21.1185 2.96153 21.1186 2.96153C21.1187 2.96153 21.1188 2.96153 21.119 2.96153C21.1191 2.96153 21.1192 2.96153 21.1194 2.96153C21.1195 2.96153 21.1196 2.96153 21.1198 2.96153C21.1199 2.96153 21.12 2.96153 21.1201 2.96153C21.1203 2.96153 21.1204 2.96153 21.1205 2.96153C21.1207 2.96153 21.1208 2.96153 21.1209 2.96153C21.1211 2.96153 21.1212 2.96153 21.1213 2.96153C21.1215 2.96153 21.1216 2.96153 21.1217 2.96153C21.1218 2.96153 21.122 2.96153 21.1221 2.96153C21.1222 2.96153 21.1224 2.96153 21.1225 2.96153C21.1226 2.96153 21.1228 2.96153 21.1229 2.96153C21.123 2.96153 21.1232 2.96153 21.1233 2.96153C21.1234 2.96153 21.1236 2.96153 21.1237 2.96153C21.1238 2.96153 21.124 2.96153 21.1241 2.96153C21.1242 2.96153 21.1244 2.96153 21.1245 2.96153C21.1246 2.96153 21.1248 2.96153 21.1249 2.96153C21.125 2.96153 21.1252 2.96153 21.1253 2.96153C21.1254 2.96153 21.1256 2.96153 21.1257 2.96153C21.1258 2.96153 21.126 2.96153 21.1261 2.96153C21.1262 2.96153 21.1264 2.96153 21.1265 2.96153C21.1266 2.96153 21.1268 2.96153 21.1269 2.96153C21.127 2.96153 21.1272 2.96153 21.1273 2.96153C21.1274 2.96153 21.1276 2.96153 21.1277 2.96153C21.1278 2.96153 21.128 2.96153 21.1281 2.96153C21.1283 2.96153 21.1284 2.96153 21.1285 2.96153C21.1287 2.96153 21.1288 2.96153 21.1289 2.96153C21.1291 2.96153 21.1292 2.96153 21.1293 2.96153C21.1295 2.96153 21.1296 2.96153 21.1297 2.96153C21.1299 2.96153 21.13 2.96153 21.1302 2.96153C21.1303 2.96153 21.1304 2.96153 21.1306 2.96153C21.1307 2.96153 21.1308 2.96153 21.131 2.96153C21.1311 2.96153 21.1313 2.96153 21.1314 2.96153C21.1315 2.96153 21.1317 2.96153 21.1318 2.96153C21.1319 2.96153 21.1321 2.96153 21.1322 2.96153C21.1324 2.96153 21.1325 2.96153 21.1326 2.96153C21.1328 2.96153 21.1329 2.96153 21.133 2.96153C21.1332 2.96153 21.1333 2.96153 21.1335 2.96153C21.1336 2.96153 21.1337 2.96153 21.1339 2.96153C21.134 2.96153 21.1341 2.96153 21.1343 2.96153C21.1344 2.96153 21.1346 2.96153 21.1347 2.96153C21.1348 2.96153 21.135 2.96153 21.1351 2.96153C21.1353 2.96153 21.1354 2.96153 21.1355 2.96153C21.1357 2.96153 21.1358 2.96153 21.136 2.96153C21.1361 2.96153 21.1362 2.96153 21.1364 2.96153C21.1365 2.96153 21.1367 2.96153 21.1368 2.96153C21.1369 2.96153 21.1371 2.96153 21.1372 2.96153C21.1374 2.96153 21.1375 2.96153 21.1376 2.96153C21.1378 2.96153 21.1379 2.96153 21.1381 2.96153C21.1382 2.96153 21.1384 2.96153 21.1385 2.96153C21.1386 2.96153 21.1388 2.96153 21.1389 2.96153C21.1391 2.96153 21.1392 2.96153 21.1393 2.96153C21.1395 2.96153 21.1396 2.96153 21.1398 2.96153C21.1399 2.96153 21.1401 2.96153 21.1402 2.96153C21.1403 2.96153 21.1405 2.96153 21.1406 2.96153C21.1408 2.96153 21.1409 2.96153 21.1411 2.96153C21.1412 2.96153 21.1413 2.96153 21.1415 2.96153C21.1416 2.96153 21.1418 2.96153 21.1419 2.96153C21.1421 2.96153 21.1422 2.96153 21.1424 2.96153C21.1425 2.96153 21.1426 2.96153 21.1428 2.96153C21.1429 2.96153 21.1431 2.96153 21.1432 2.96153C21.1434 2.96153 21.1435 2.96153 21.1437 2.96153C21.1438 2.96153 21.1439 2.96153 21.1441 2.96153C21.1442 2.96153 21.1444 2.96153 21.1445 2.96153C21.1447 2.96153 21.1448 2.96153 21.145 2.96153C21.1451 2.96153 21.1453 2.96153 21.1454 2.96153C21.1455 2.96153 21.1457 2.96153 21.1458 2.96153C21.146 2.96153 21.1461 2.96153 21.1463 2.96153C21.1464 2.96153 21.1466 2.96153 21.1467 2.96153C21.1469 2.96153 21.147 2.96153 21.1472 2.96153C21.1473 2.96153 21.1474 2.96153 21.1476 2.96153C21.1477 2.96153 21.1479 2.96153 21.148 2.96153C21.1482 2.96153 21.1483 2.96153 21.1485 2.96153C21.1486 2.96153 21.1488 2.96153 21.1489 2.96153C21.1491 2.96153 21.1492 2.96153 21.1494 2.96153C21.1495 2.96153 21.1497 2.96153 21.1498 2.96153C21.15 2.96153 21.1501 2.96153 21.1503 2.96153C21.1504 2.96153 21.1506 2.96153 21.1507 2.96153C21.1509 2.96153 21.151 2.96153 21.1512 2.96153C21.1513 2.96153 21.1515 2.96153 21.1516 2.96153C21.1518 2.96153 21.1519 2.96153 21.1521 2.96153C21.1522 2.96153 21.1524 2.96153 21.1525 2.96153C21.1527 2.96153 21.1528 2.96153 21.153 2.96153C21.1531 2.96153 21.1533 2.96153 21.1534 2.96153C21.1536 2.96153 21.1537 2.96153 21.1539 2.96153C21.154 2.96153 21.1542 2.96153 21.1543 2.96153C21.1545 2.96153 21.1546 2.96153 21.1548 2.96153C21.1549 2.96153 21.1551 2.96153 21.1552 2.96153C21.1554 2.96153 21.1555 2.96153 21.1557 2.96153C21.1558 2.96153 21.156 2.96153 21.1561 2.96153C21.1563 2.96153 21.1564 2.96153 21.1566 2.96153C21.1568 2.96153 21.1569 2.96153 21.1571 2.96153C21.1572 2.96153 21.1574 2.96153 21.1575 2.96153C21.1577 2.96153 21.1578 2.96153 21.158 2.96153C21.1581 2.96153 21.1583 2.96153 21.1584 2.96153C21.1586 2.96153 21.1587 2.96153 21.1589 2.96153C21.1591 2.96153 21.1592 2.96153 21.1594 2.96153C21.1595 2.96153 21.1597 2.96153 21.1598 2.96153C21.16 2.96153 21.1601 2.96153 21.1603 2.96153C21.1605 2.96153 21.1606 2.96153 21.1608 2.96153C21.1609 2.96153 21.1611 2.96153 21.1612 2.96153C21.1614 2.96153 21.1615 2.96153 21.1617 2.96153C21.1619 2.96153 21.162 2.96153 21.1622 2.96153C21.1623 2.96153 21.1625 2.96153 21.1626 2.96153C21.1628 2.96153 21.163 2.96153 21.1631 2.96153C21.1633 2.96153 21.1634 2.96153 21.1636 2.96153C21.1637 2.96153 21.1639 2.96153 21.1641 2.96153C21.1642 2.96153 21.1644 2.96153 21.1645 2.96153C21.1647 2.96153 21.1648 2.96153 21.165 2.96153C21.1652 2.96153 21.1653 2.96153 21.1655 2.96153C21.1656 2.96153 21.1658 2.96153 21.1659 2.96153C21.1661 2.96153 21.1663 2.96153 21.1664 2.96153C21.1666 2.96153 21.1667 2.96153 21.1669 2.96153C21.1671 2.96153 21.1672 2.96153 21.1674 2.96153C21.1675 2.96153 21.1677 2.96153 21.1679 2.96153C21.168 2.96153 21.1682 2.96153 21.1683 2.96153C21.1685 2.96153 21.1687 2.96153 21.1688 2.96153C21.169 2.96153 21.1691 2.96153 21.1693 2.96153C21.1695 2.96153 21.1696 2.96153 21.1698 2.96153C21.17 2.96153 21.1701 2.96153 21.1703 2.96153C21.1704 2.96153 21.1706 2.96153 21.1708 2.96153C21.1709 2.96153 21.1711 2.96153 21.1712 2.96153C21.1714 2.96153 21.1716 2.96153 21.1717 2.96153C21.1719 2.96153 21.1721 2.96153 21.1722 2.96153C21.1724 2.96153 21.1725 2.96153 21.1727 2.96153C21.1729 2.96153 21.173 2.96153 21.1732 2.96153C21.1734 2.96153 21.1735 2.96153 21.1737 2.96153C21.1739 2.96153 21.174 2.96153 21.1742 2.96153C21.1743 2.96153 21.1745 2.96153 21.1747 2.96153C21.1748 2.96153 21.175 2.96153 21.1752 2.96153C21.1753 2.96153 21.1755 2.96153 21.1757 2.96153C21.1758 2.96153 21.176 2.96153 21.1762 2.96153C21.1763 2.96153 21.1765 2.96153 21.1767 2.96153C21.1768 2.96153 21.177 2.96153 21.1772 2.96153C21.1773 2.96153 21.1775 2.96153 21.1776 2.96153C21.1778 2.96153 21.178 2.96153 21.1781 2.96153C21.1783 2.96153 21.1785 2.96153 21.1786 2.96153C21.1788 2.96153 21.179 2.96153 21.1791 2.96153C21.1793 2.96153 21.1795 2.96153 21.1797 2.96153C21.1798 2.96153 21.18 2.96153 21.1802 2.96153C21.1803 2.96153 21.1805 2.96153 21.1807 2.96153C21.1808 2.96153 21.181 2.96153 21.1812 2.96153C21.1813 2.96153 21.1815 2.96153 21.1817 2.96153C21.1818 2.96153 21.182 2.96153 21.1822 2.96153C21.1823 2.96153 21.1825 2.96153 21.1827 2.96153C21.1829 2.96153 21.183 2.96153 21.1832 2.96153C21.1834 2.96153 21.1835 2.96153 21.1837 2.96153C21.1839 2.96153 21.184 2.96153 21.1842 2.96153C21.1844 2.96153 21.1846 2.96153 21.1847 2.96153C21.1849 2.96153 21.1851 2.96153 21.1852 2.96153C21.1854 2.96153 21.1856 2.96153 21.1858 2.96153C21.1859 2.96153 21.1861 2.96153 21.1863 2.96153C21.1864 2.96153 21.1866 2.96153 21.1868 2.96153C21.187 2.96153 21.1871 2.96153 21.1873 2.96153C21.1875 2.96153 21.1876 2.96153 21.1878 2.96153C21.188 2.96153 21.1882 2.96153 21.1883 2.96153C21.1885 2.96153 21.1887 2.96153 21.1889 2.96153C21.189 2.96153 21.1892 2.96153 21.1894 2.96153C21.1895 2.96153 21.1897 2.96153 21.1899 2.96153C21.1901 2.96153 21.1902 2.96153 21.1904 2.96153C21.1906 2.96153 21.1908 2.96153 21.1909 2.96153C21.1911 2.96153 21.1913 2.96153 21.1915 2.96153C21.1916 2.96153 21.1918 2.96153 21.192 2.96153C21.1922 2.96153 21.1923 2.96153 21.1925 2.96153C21.1927 2.96153 21.1929 2.96153 21.193 2.96153C21.1932 2.96153 21.1934 2.96153 21.1936 2.96153C21.1938 2.96153 21.1939 2.96153 21.1941 2.96153C21.1943 2.96153 21.1945 2.96153 21.1946 2.96153C21.1948 2.96153 21.195 2.96153 21.1952 2.96153C21.1953 2.96153 21.1955 2.96153 21.1957 2.96153C21.1959 2.96153 21.1961 2.96153 21.1962 2.96153C21.1964 2.96153 21.1966 2.96153 21.1968 2.96153C21.1969 2.96153 21.1971 2.96153 21.1973 2.96153C21.1975 2.96153 21.1977 2.96153 21.1978 2.96153C21.198 2.96153 21.1982 2.96153 21.1984 2.96153C21.1986 2.96153 21.1987 2.96153 21.1989 2.96153C21.1991 2.96153 21.1993 2.96153 21.1995 2.96153C21.1996 2.96153 21.1998 2.96153 21.2 2.96153C21.2002 2.96153 21.2004 2.96153 21.2005 2.96153C21.2007 2.96153 21.2009 2.96153 21.2011 2.96153C21.2013 2.96153 21.2014 2.96153 21.2016 2.96153C21.2018 2.96153 21.202 2.96153 21.2022 2.96153C21.2024 2.96153 21.2025 2.96153 21.2027 2.96153C21.2029 2.96153 21.2031 2.96153 21.2033 2.96153C21.2035 2.96153 21.2036 2.96153 21.2038 2.96153V2.61153ZM7.90375 14.3488C7.88051 14.375 7.8578 14.4006 7.83565 14.4255L8.09737 14.6579C8.11952 14.633 8.14224 14.6074 8.16548 14.5812L7.90375 14.3488ZM7.37216 14.3638C7.41594 14.3151 7.45934 14.2667 7.50239 14.2187L7.24187 13.985C7.19882 14.0329 7.15542 14.0813 7.11164 14.1301L7.37216 14.3638ZM16.0786 18.3613L16.3506 18.1411L16.1142 17.8491L15.8396 18.1055L16.0786 18.3613ZM14.9227 19.442L14.6845 19.1856L14.6845 19.1856L14.9227 19.442ZM14.1893 19.442L13.9419 19.6896L13.9426 19.6903L14.1893 19.442ZM13.0352 18.2786L12.7852 18.5235L12.7856 18.5239L13.0352 18.2786ZM13.0511 17.5891L13.2939 17.8413L13.2984 17.8368L13.0511 17.5891ZM13.9489 16.667L14.1994 16.9114L14.4522 16.6523L14.1848 16.4084L13.9489 16.667ZM12.0049 14.8933L12.2408 14.6348L12.005 14.4197L11.7692 14.6346L12.0049 14.8933ZM10.0484 16.6756L9.81272 16.4168L9.54354 16.6621L9.79921 16.9213L10.0484 16.6756ZM10.9462 17.5891L11.1932 17.3411L11.1928 17.3407L10.9462 17.5891ZM10.971 18.2786L11.2208 18.5238L11.2248 18.5196L10.971 18.2786ZM9.77626 19.4851L10.0232 19.7331L10.0233 19.733L9.77626 19.4851ZM9.10644 19.4989L8.86862 19.7557L8.86921 19.7562L9.10644 19.4989ZM8.04604 18.4957L8.28813 18.243L8.05352 18.0183L7.81198 18.2355L8.04604 18.4957ZM6.1762 20.1849L6.41603 20.4398L6.4172 20.4387L6.1762 20.1849ZM4.57147 21.7931L4.32586 21.5437L4.32226 21.5473L4.57147 21.7931ZM3.86453 21.8137L4.10807 21.5623L4.10502 21.5594L3.86453 21.8137ZM2.23682 20.2625L1.99397 20.5145L1.99438 20.5149L2.23682 20.2625ZM2.23682 19.5472L2.48203 19.7971L2.48893 19.7899L2.23682 19.5472ZM5.32612 16.3912L5.57426 16.6381L5.57766 16.6345L5.32612 16.3912ZM5.53289 16.1775L5.78444 16.4208L6.02006 16.1773L5.78425 15.9339L5.53289 16.1775ZM4.52552 14.4435L4.77069 14.6934L4.7761 14.6878L4.52552 14.4435ZM5.69902 13.2576L5.94598 13.5056L5.94611 13.5055L5.69902 13.2576ZM6.34233 13.2576L6.08913 13.4993L6.09368 13.5039L6.34233 13.2576ZM7.2419 14.247L6.98244 14.4819L7.24307 14.7698L7.50242 14.4807L7.2419 14.247ZM9.05165 12.2269L9.31274 12.46L9.54219 12.203L9.28883 11.9695L9.05165 12.2269ZM6.96797 10.3068L7.20515 10.0494L7.20307 10.0475L6.96797 10.3068ZM2.53727 6.28723L2.77266 6.02789L2.76278 6.01956L2.53727 6.28723ZM2.22799 5.65293L2.57798 5.64235L2.57736 5.63204L2.22799 5.65293ZM2.00354 2.53488L1.65429 2.55789L1.65438 2.55922L2.00354 2.53488ZM2.54434 2.01779L2.57798 1.66938L2.57361 1.66901L2.54434 2.01779ZM5.75735 2.32976L5.72537 2.67833L5.73001 2.67869L5.75735 2.32976ZM6.39712 2.66243L6.12575 2.88347L6.1306 2.88941L6.13569 2.89514L6.39712 2.66243ZM11.8493 8.76927L11.5886 9.00275L11.5895 9.00374L11.8493 8.76927ZM11.9713 8.94163L11.6814 9.1377L11.9315 9.50758L12.2309 9.17633L11.9713 8.94163ZM12.9186 7.89366L13.1782 8.12836L13.1795 8.12694L12.9186 7.89366ZM17.6515 2.61072L17.3925 2.37527L17.3918 2.37608L17.6515 2.61072ZM18.134 2.34872L18.094 2.00101L18.085 2.00205L18.0759 2.00357L18.134 2.34872ZM21.5184 2.004L21.5519 2.35239L21.5526 2.35233L21.5184 2.004ZM21.9726 2.4418L21.6234 2.41857L21.6234 2.41898L21.9726 2.4418ZM21.7216 5.84426L22.0657 5.90845L22.0688 5.8917L22.0703 5.87473L21.7216 5.84426ZM21.4919 6.24586L21.2609 5.9828L21.2556 5.98764L21.4919 6.24586ZM15.1949 11.9856L15.4271 12.2475L15.4302 12.2447L15.1949 11.9856ZM14.9245 12.1924L14.7126 11.9138L14.4114 12.1428L14.6632 12.4253L14.9245 12.1924ZM16.6777 14.1591L16.4164 14.392L16.6565 14.6613L16.9184 14.4131L16.6777 14.1591ZM18.3584 13.3093L18.6068 13.0627L18.6056 13.0615L18.3584 13.3093ZM19.493 14.4521L19.2424 14.6964L19.2437 14.6977L19.493 14.4521ZM19.493 15.1295L19.7444 15.373L19.7458 15.3715L19.493 15.1295ZM18.4786 16.1947L18.2237 15.9549L17.9924 16.2007L18.2296 16.4407L18.4786 16.1947ZM19.8394 17.5736L20.0877 17.3269L20.0865 17.3257L19.8394 17.5736ZM21.7429 19.492L21.4942 19.7383L21.4947 19.7388L21.7429 19.492ZM21.7429 20.2918L21.9836 20.5458L21.9853 20.5442L21.7429 20.2918ZM20.2389 21.7172L20.4791 21.9718L20.4796 21.9713L20.2389 21.7172ZM19.3552 21.6965L19.1069 21.9432L19.108 21.9443L19.3552 21.6965ZM16.2783 18.594L16.527 18.3477L16.5151 18.3358L16.5022 18.325L16.2783 18.594ZM21.0165 2.78653V2.43653H20.9983L20.9803 2.4384L21.0165 2.78653ZM18.5281 3.04163L18.543 3.39131L18.5511 3.39096L18.5592 3.39024L18.5281 3.04163ZM18.0138 3.29155L18.275 3.52464L18.281 3.51765L18.0138 3.29155ZM9.06049 13.3128L8.79965 13.0794H8.79965L9.06049 13.3128ZM7.96651 14.5417L7.70479 14.3093L7.49664 14.5438L7.70682 14.7764L7.96651 14.5417ZM9.46167 16.1964L9.20198 16.4311L9.4371 16.6913L9.69684 16.4556L9.46167 16.1964ZM9.84165 15.8517L10.0768 16.1109L10.0775 16.1103L9.84165 15.8517ZM14.1822 11.8873L13.9469 11.6283L13.946 11.6291L14.1822 11.8873ZM20.8309 5.84598L20.6075 5.57659L20.6014 5.58165L20.5955 5.58698L20.8309 5.84598ZM20.9864 5.59088L21.3286 5.66451L21.3332 5.64332L21.3351 5.62173L20.9864 5.59088ZM21.2109 2.78653L21.5599 2.81287L21.5883 2.43653H21.2109V2.78653ZM2.78116 2.76757L2.81668 2.41937L2.40168 2.37703L2.43209 2.79308L2.78116 2.76757ZM2.9844 5.4392L2.63597 5.47226L2.63671 5.4801L2.63781 5.4879L2.9844 5.4392ZM3.21769 5.8908L2.97626 6.14426L2.98039 6.14806L3.21769 5.8908ZM7.63602 9.92583L7.40016 10.1844L7.40049 10.1847L7.63602 9.92583ZM9.54297 11.6495L9.30918 11.9099L9.5703 12.1443L9.80402 11.8826L9.54297 11.6495ZM11.487 9.47251L11.7481 9.70564L11.9567 9.47208L11.7477 9.2389L11.487 9.47251ZM5.87222 3.18641L5.59714 3.40281L5.60402 3.41155L5.61143 3.41984L5.87222 3.18641ZM5.68488 3.06748L5.76538 2.72686L5.74425 2.72187L5.72266 2.71952L5.68488 3.06748ZM6.11611 16.6411L6.37275 16.4031L6.12446 16.1354L5.86747 16.3948L6.11611 16.6411ZM2.98617 19.8005L2.73753 19.5542L2.5047 19.7892L2.72624 20.0349L2.98617 19.8005ZM4.17205 21.1157L3.91212 21.3501L4.16007 21.625L4.42067 21.362L4.17205 21.1157ZM7.31967 17.939L7.56829 18.1854L7.80443 17.947L7.5763 17.701L7.31967 17.939ZM21.0218 19.8178L21.2771 20.0572L21.5079 19.8111L21.2704 19.5714L21.0218 19.8178ZM17.8777 16.6446L18.1263 16.3982L17.8699 16.1394L17.6216 16.406L17.8777 16.6446ZM16.6688 17.9425L16.4127 17.7039L16.1836 17.9499L16.4201 18.1887L16.6688 17.9425ZM19.8076 21.1122L19.5589 21.3585L19.8145 21.6165L20.0629 21.3517L19.8076 21.1122ZM17.9201 14.0022L18.1508 13.739L17.9108 13.5287L17.6793 13.7483L17.9201 14.0022ZM13.7404 17.9666L13.4995 17.7126L13.2204 17.9774L13.5103 18.2303L13.7404 17.9666ZM14.6134 18.7284L14.3833 18.9921L14.6234 19.2016L14.8544 18.9823L14.6134 18.7284ZM18.7896 14.7641L19.0306 15.0179L19.3089 14.7537L19.0203 14.5008L18.7896 14.7641ZM5.21124 14.7744L4.98702 14.5057L4.68493 14.7577L4.97042 15.0284L5.21124 14.7744ZM9.34679 18.6957L9.10597 18.9497L9.33434 19.1662L9.57384 18.962L9.34679 18.6957ZM10.2305 17.9425L10.4575 18.2088L10.7538 17.9563L10.4713 17.6885L10.2305 17.9425ZM6.10374 14.0298L6.34455 13.7758L6.11861 13.5616L5.87953 13.7611L6.10374 14.0298ZM16.0538 14.5796L16.3099 14.8183L16.5273 14.5849L16.3151 14.3468L16.0538 14.5796ZM14.3855 12.7129L14.6466 12.4799L14.4108 12.2157L14.1494 12.4545L14.3855 12.7129ZM12.5492 14.39L12.3132 14.1316L12.03 14.3902L12.3133 14.6486L12.5492 14.39ZM14.5392 16.205L14.3034 16.4636L14.5592 16.697L14.7953 16.4436L14.5392 16.205ZM7.37213 14.1018L7.11161 13.8681L7.11161 13.8681L7.37213 14.1018ZM8.03461 14.465L8.29634 14.6974L8.29634 14.6974L8.03461 14.465ZM15.8396 18.1055C15.4191 18.4984 15.0554 18.8411 14.6845 19.1856L15.1609 19.6985C15.5323 19.3535 15.9003 19.0068 16.3175 18.6171L15.8396 18.1055ZM14.6845 19.1856C14.6175 19.2478 14.5742 19.2798 14.5468 19.2954C14.5225 19.3094 14.5265 19.3014 14.5487 19.3014C14.572 19.3014 14.5788 19.31 14.5596 19.2986C14.5365 19.2848 14.4977 19.255 14.436 19.1937L13.9426 19.6903C14.0868 19.8336 14.2848 20.0014 14.5487 20.0014C14.8072 20.0014 15.0094 19.8392 15.161 19.6984L14.6845 19.1856ZM14.4367 19.1944C14.0509 18.8091 13.667 18.422 13.2848 18.0332L12.7856 18.5239C13.1693 18.9142 13.5547 19.3028 13.9419 19.6896L14.4367 19.1944ZM13.2852 18.0336C13.2294 17.9766 13.2037 17.941 13.1929 17.9217C13.1841 17.906 13.193 17.9155 13.1922 17.9409C13.1914 17.9655 13.1825 17.9726 13.1939 17.9543C13.2072 17.9332 13.2358 17.8971 13.2938 17.8413L12.8084 17.3369C12.6675 17.4725 12.5005 17.663 12.4925 17.919C12.4844 18.1797 12.6438 18.3792 12.7852 18.5235L13.2852 18.0336ZM13.2984 17.8368C13.5969 17.5388 13.8925 17.226 14.1994 16.9114L13.6984 16.4225C13.3797 16.7492 13.0992 17.0465 12.8038 17.3414L13.2984 17.8368ZM14.1848 16.4084L12.2408 14.6348L11.769 15.1519L13.713 16.9255L14.1848 16.4084ZM11.7692 14.6346L9.81272 16.4168L10.2841 16.9343L12.2406 15.1521L11.7692 14.6346ZM9.79921 16.9213C10.1043 17.2307 10.4018 17.5418 10.6997 17.8375L11.1928 17.3407C10.8968 17.0469 10.6146 16.7513 10.2976 16.4298L9.79921 16.9213ZM10.6993 17.8372C10.7518 17.8894 10.7784 17.9247 10.7911 17.9463C10.8025 17.9655 10.7972 17.9641 10.7965 17.9482C10.7957 17.9311 10.8014 17.9254 10.7947 17.9385C10.7862 17.9551 10.7651 17.9871 10.7172 18.0375L11.2248 18.5196C11.3662 18.3707 11.5067 18.172 11.4958 17.9182C11.4853 17.6719 11.3354 17.4826 11.1932 17.3411L10.6993 17.8372ZM10.7212 18.0334C10.3256 18.4364 9.92899 18.8387 9.52917 19.2372L10.0233 19.733C10.4259 19.3318 10.8246 18.9274 11.2208 18.5237L10.7212 18.0334ZM9.52928 19.2371C9.47761 19.2886 9.4446 19.3128 9.42624 19.3235C9.41096 19.3324 9.41705 19.3254 9.43746 19.325C9.45787 19.3246 9.46432 19.3314 9.44892 19.3232C9.43037 19.3133 9.39681 19.2906 9.34366 19.2416L8.86921 19.7562C9.01101 19.887 9.20348 20.0295 9.45053 20.0249C9.69764 20.0202 9.88516 19.8706 10.0232 19.7331L9.52928 19.2371ZM9.34425 19.2421C8.96141 18.8876 8.58342 18.5258 8.28813 18.243L7.80395 18.7485C8.09894 19.031 8.48091 19.3966 8.86862 19.7557L9.34425 19.2421ZM7.81198 18.2355C7.18295 18.8013 6.54229 19.3546 5.9352 19.9311L6.4172 20.4387C7.01544 19.8707 7.63664 19.3347 8.28009 18.756L7.81198 18.2355ZM5.93638 19.93C5.38813 20.4458 4.84877 21.0288 4.32589 21.5437L4.81705 22.0424C5.38284 21.4853 5.865 20.9582 6.41603 20.4398L5.93638 19.93ZM4.32226 21.5473C4.26708 21.6033 4.2299 21.6313 4.20738 21.6446C4.18752 21.6563 4.18944 21.6505 4.20648 21.65C4.22425 21.6495 4.22926 21.6556 4.21382 21.6473C4.19498 21.6372 4.16088 21.6135 4.10805 21.5623L3.62101 22.0651C3.76829 22.2078 3.96767 22.3568 4.22555 22.3498C4.47886 22.3429 4.67381 22.1877 4.82067 22.0388L4.32226 21.5473ZM4.10502 21.5594C3.56252 21.0464 3.0206 20.53 2.47927 20.01L1.99438 20.5149C2.53701 21.0361 3.08023 21.5538 3.62405 22.068L4.10502 21.5594ZM2.47968 20.0104C2.4127 19.9459 2.3797 19.9058 2.36424 19.8819C2.35103 19.8615 2.364 19.8734 2.36414 19.9066C2.36427 19.9397 2.3515 19.9512 2.36509 19.9297C2.38079 19.9049 2.41427 19.8634 2.48193 19.797L1.99171 19.2973C1.84778 19.4385 1.66303 19.6403 1.66414 19.9095C1.66526 20.1791 1.85237 20.3781 1.99397 20.5145L2.47968 20.0104ZM2.48893 19.7899C3.50677 18.733 4.5352 17.6824 5.57423 16.638L5.078 16.1443C4.0363 17.1913 3.0052 18.2447 1.98472 19.3044L2.48893 19.7899ZM5.57766 16.6345L5.78444 16.4208L5.28135 15.9341L5.07457 16.1478L5.57766 16.6345ZM5.78425 15.9339C5.4502 15.5891 5.12487 15.2545 4.79196 14.9229L4.29795 15.4188C4.62603 15.7456 4.94753 16.0763 5.28154 16.421L5.78425 15.9339ZM4.79196 14.9229C4.71349 14.8447 4.67265 14.7962 4.6521 14.7654C4.6331 14.7368 4.6497 14.7502 4.64995 14.7907C4.65022 14.8331 4.63251 14.8509 4.64684 14.8296C4.66391 14.8044 4.69904 14.7636 4.77063 14.6933L4.2804 14.1936C4.20354 14.269 4.12556 14.3508 4.06679 14.4378C4.0053 14.5288 3.94904 14.6485 3.94997 14.7952C3.95089 14.94 4.00736 15.06 4.06938 15.1532C4.12985 15.2441 4.21118 15.3324 4.29795 15.4188L4.79196 14.9229ZM4.7761 14.6878C5.16372 14.2903 5.55368 13.8963 5.94598 13.5056L5.45207 13.0096C5.05732 13.4027 4.66494 13.7992 4.27493 14.1991L4.7761 14.6878ZM5.94611 13.5055C5.99497 13.4568 6.02623 13.4339 6.04322 13.424C6.05757 13.4157 6.04948 13.4237 6.02582 13.424C6.00115 13.4243 5.99014 13.4159 5.99997 13.4216C6.01328 13.4293 6.04223 13.4501 6.08917 13.4993L6.59549 13.0159C6.45949 12.8735 6.26958 12.7208 6.01686 12.7241C5.77069 12.7272 5.58388 12.8782 5.45193 13.0097L5.94611 13.5055ZM6.09368 13.5039C6.38894 13.802 6.65032 14.115 6.98244 14.4819L7.50137 14.0121C7.19372 13.6723 6.90015 13.3234 6.59099 13.0113L6.09368 13.5039ZM9.28883 11.9695L7.20515 10.0494L6.73079 10.5641L8.81447 12.4843L9.28883 11.9695ZM7.20307 10.0475C5.72798 8.70997 4.25112 7.37017 2.7725 6.02807L2.30203 6.54639C3.78075 7.88857 5.25769 9.22845 6.73287 10.566L7.20307 10.0475ZM2.76278 6.01956C2.70592 5.97166 2.66049 5.91326 2.62886 5.84839L1.99967 6.15518C2.07453 6.30871 2.18098 6.44471 2.31176 6.5549L2.76278 6.01956ZM2.62886 5.84839C2.59724 5.78355 2.57997 5.71341 2.57783 5.64236L1.87815 5.66351C1.8833 5.83418 1.9248 6.00163 1.99967 6.15518L2.62886 5.84839ZM2.57736 5.63204C2.51546 4.59716 2.4245 3.54056 2.35269 2.51053L1.65438 2.55922C1.72749 3.60789 1.81679 4.64034 1.87861 5.67383L2.57736 5.63204ZM2.35278 2.51187C2.34676 2.42053 2.35159 2.36907 2.35732 2.343C2.3621 2.32123 2.36312 2.33625 2.34199 2.35622C2.32169 2.3754 2.30924 2.37226 2.33634 2.36735C2.36666 2.36185 2.42181 2.35873 2.51506 2.36656L2.57361 1.66901C2.35271 1.65047 2.06642 1.65357 1.86126 1.8474C1.65159 2.04549 1.63952 2.33369 1.65429 2.55789L2.35278 2.51187ZM2.5107 2.36617C3.57835 2.46926 4.65364 2.57999 5.72537 2.6783L5.78932 1.98123C4.71904 1.88305 3.65233 1.77315 2.57798 1.66941L2.5107 2.36617ZM5.73001 2.67869C5.80775 2.68479 5.88304 2.70638 5.9512 2.74182L6.27413 2.12076C6.12217 2.04174 5.95558 1.99422 5.78468 1.98083L5.73001 2.67869ZM5.9512 2.74182C6.01933 2.77724 6.07862 2.82561 6.12575 2.88347L6.66848 2.44138C6.56045 2.30876 6.42611 2.19978 6.27413 2.12076L5.9512 2.74182ZM6.13569 2.89514C7.95156 4.93503 9.76919 6.9709 11.5886 9.00275L12.1101 8.53579C10.2911 6.50445 8.47396 4.46909 6.65854 2.42971L6.13569 2.89514ZM11.5895 9.00374C11.6066 9.02265 11.6099 9.03211 11.6814 9.1377L12.2612 8.74556C12.223 8.68913 12.1699 8.60206 12.1092 8.5348L11.5895 9.00374ZM12.2309 9.17633L13.1782 8.12836L12.6589 7.65896L11.7116 8.70693L12.2309 9.17633ZM13.1795 8.12694C14.7566 6.36291 16.3267 4.59911 17.9112 2.84535L17.3918 2.37608C15.8057 4.13164 14.2334 5.89786 12.6576 7.66038L13.1795 8.12694ZM17.9105 2.84616C17.9826 2.76683 18.0816 2.71244 18.192 2.69388L18.0759 2.00357C17.813 2.04776 17.5717 2.17816 17.3925 2.37527L17.9105 2.84616ZM18.1739 2.69644C19.2958 2.56761 20.4215 2.46108 21.5519 2.35239L21.4849 1.6556C20.3567 1.76409 19.2237 1.87129 18.094 2.00101L18.1739 2.69644ZM21.5526 2.35233C21.6031 2.34737 21.6306 2.35147 21.6414 2.35414C21.65 2.35628 21.6418 2.35577 21.6299 2.34437C21.6179 2.33287 21.6167 2.32419 21.6188 2.33163C21.6216 2.34137 21.6267 2.36806 21.6234 2.41857L22.3218 2.46503C22.336 2.2523 22.2955 2.01271 22.1143 1.839C21.9339 1.66614 21.6938 1.63511 21.4842 1.65567L21.5526 2.35233ZM21.6234 2.41898C21.5492 3.55443 21.4716 4.68539 21.373 5.81378L22.0703 5.87473C22.1696 4.73827 22.2476 3.60092 22.3219 2.46462L21.6234 2.41898ZM21.3776 5.78006C21.3633 5.85686 21.3229 5.92845 21.261 5.98285L21.7228 6.50887C21.9009 6.3525 22.0222 6.1416 22.0657 5.90845L21.3776 5.78006ZM21.2556 5.98764C19.1611 7.90402 17.0624 9.81697 14.9596 11.7265L15.4302 12.2447C17.5336 10.3346 19.633 8.42107 21.7282 6.50409L21.2556 5.98764ZM14.9627 11.7237C14.8973 11.7817 14.8415 11.8158 14.7126 11.9138L15.1363 12.471C15.216 12.4104 15.337 12.3274 15.4271 12.2475L14.9627 11.7237ZM14.6632 12.4253L16.4164 14.392L16.9389 13.9262L15.1858 11.9595L14.6632 12.4253ZM16.9184 14.4131C17.2316 14.1163 17.527 13.8351 17.8257 13.5507L17.343 13.0438C17.0443 13.3282 16.7494 13.6089 16.4369 13.905L16.9184 14.4131ZM17.8257 13.5507C17.8927 13.4869 17.9364 13.4536 17.9648 13.4369C17.9899 13.4221 17.9874 13.4296 17.9674 13.4296C17.9468 13.4297 17.944 13.422 17.9687 13.4367C17.997 13.4535 18.0423 13.4884 18.1113 13.5571L18.6056 13.0615C18.4445 12.9008 18.2356 12.7287 17.9648 12.7297C17.6975 12.7306 17.4926 12.9013 17.343 13.0438L17.8257 13.5507ZM18.11 13.5559C18.4915 13.9401 18.8691 14.3134 19.2424 14.6964L19.7437 14.2078C19.3677 13.8221 18.9818 13.4404 18.6068 13.0627L18.11 13.5559ZM19.2437 14.6977C19.2976 14.7524 19.3223 14.7866 19.3328 14.805C19.3412 14.8198 19.333 14.8113 19.3333 14.7877C19.3335 14.7649 19.3414 14.7582 19.3312 14.7759C19.3193 14.7965 19.2934 14.8319 19.2402 14.8874L19.7458 15.3715C19.8769 15.2347 20.0306 15.0444 20.0332 14.7951C20.0359 14.5413 19.8818 14.3481 19.7424 14.2065L19.2437 14.6977ZM19.2417 14.8859C18.906 15.2324 18.5777 15.5785 18.2237 15.9549L18.7335 16.4345C19.0864 16.0593 19.4121 15.716 19.7444 15.373L19.2417 14.8859ZM18.2296 16.4407C18.6485 16.8646 19.1143 17.3449 19.5923 17.8215L20.0865 17.3257C19.6102 16.8509 19.1534 16.3797 18.7276 15.9487L18.2296 16.4407ZM19.5912 17.8203C20.2261 18.4591 20.8604 19.0984 21.4942 19.7383L21.9915 19.2457C21.3575 18.6055 20.7229 17.9659 20.0877 17.3269L19.5912 17.8203ZM21.4947 19.7388C21.5764 19.8209 21.6202 19.8731 21.6429 19.9079C21.6639 19.9399 21.65 19.9316 21.65 19.8977C21.65 19.8628 21.6646 19.8524 21.6456 19.8806C21.6242 19.9123 21.5818 19.9612 21.5004 20.0393L21.9853 20.5442C22.0753 20.4578 22.1615 20.3674 22.2258 20.2722C22.2925 20.1734 22.35 20.0483 22.35 19.8977C22.35 19.7482 22.2932 19.6232 22.2285 19.5243C22.1656 19.4283 22.0808 19.3354 21.991 19.2452L21.4947 19.7388ZM21.5021 20.0377L19.9981 21.4632L20.4796 21.9713L21.9836 20.5458L21.5021 20.0377ZM19.9986 21.4627C19.9062 21.5499 19.8476 21.5974 19.8072 21.6228C19.7704 21.6459 19.7751 21.6336 19.8042 21.6343C19.8323 21.6349 19.8348 21.6467 19.7958 21.6204C19.754 21.5921 19.6945 21.5407 19.6024 21.4488L19.108 21.9443C19.2058 22.042 19.3041 22.133 19.4039 22.2004C19.5067 22.2698 19.6347 22.3307 19.7886 22.3341C19.9433 22.3375 20.0738 22.2819 20.1792 22.2158C20.2808 22.152 20.3806 22.0647 20.4791 21.9718L19.9986 21.4627ZM19.6035 21.4499C18.5762 20.4158 17.5507 19.3818 16.527 18.3477L16.0295 18.8402C17.0536 19.8746 18.0793 20.9089 19.1069 21.9432L19.6035 21.4499ZM16.5022 18.325C16.465 18.294 16.4601 18.2763 16.3506 18.1411L15.8065 18.5815C15.8561 18.6428 15.9466 18.7733 16.0543 18.863L16.5022 18.325ZM20.9803 2.4384C20.1466 2.52509 19.3243 2.61919 18.497 2.69301L18.5592 3.39024C19.3932 3.31583 20.2286 3.22033 21.0527 3.13465L20.9803 2.4384ZM18.5131 2.69194C18.3666 2.6982 18.2227 2.73441 18.0907 2.79853L18.3967 3.42813C18.4419 3.40614 18.4918 3.39349 18.543 3.39131L18.5131 2.69194ZM18.0907 2.79853C17.9588 2.86266 17.8414 2.95343 17.7466 3.06545L18.281 3.51765C18.3122 3.48077 18.3515 3.4501 18.3967 3.42813L18.0907 2.79853ZM17.7526 3.05855C14.7695 6.40228 11.7851 9.74256 8.79965 13.0794L9.32132 13.5461C12.307 10.2091 15.2916 6.86853 18.275 3.52456L17.7526 3.05855ZM7.70682 14.7764L9.20198 16.4311L9.72136 15.9618L8.2262 14.3071L7.70682 14.7764ZM9.69684 16.4556L10.0768 16.1109L9.60647 15.5925L9.2265 15.9372L9.69684 16.4556ZM10.0775 16.1103C11.5256 14.7899 12.9726 13.4683 14.4185 12.1456L13.946 11.6291C12.5004 12.9516 11.0537 14.2729 9.60583 15.5931L10.0775 16.1103ZM14.4175 12.1464C16.6338 10.1332 18.8501 8.11936 21.0663 6.10498L20.5955 5.58698C18.3793 7.60131 16.1631 9.61507 13.9469 11.6283L14.4175 12.1464ZM21.0544 6.11537C21.1933 6.00015 21.2904 5.84186 21.3286 5.66451L20.6443 5.51726C20.6396 5.5389 20.6274 5.56008 20.6075 5.57659L21.0544 6.11537ZM21.3351 5.62173C21.4166 4.70051 21.4874 3.77283 21.5599 2.81287L20.8619 2.76019C20.7894 3.72035 20.7189 4.64386 20.6378 5.56003L21.3351 5.62173ZM21.2109 2.43653H21.2038V3.13653H21.2109V2.43653ZM2.43209 2.79308C2.49882 3.70591 2.55243 4.59165 2.63597 5.47226L3.33284 5.40615C3.25025 4.53554 3.19782 3.66662 3.13023 2.74205L2.43209 2.79308ZM2.63781 5.4879C2.67305 5.73876 2.79285 5.96949 2.97629 6.14423L3.45909 5.63736C3.38837 5.57 3.34398 5.48293 3.331 5.3905L2.63781 5.4879ZM2.98039 6.14806C4.44822 7.502 5.92925 8.84287 7.40016 10.1844L7.87187 9.66723C6.39841 8.32336 4.92093 6.9857 3.45499 5.63353L2.98039 6.14806ZM7.40049 10.1847C8.03193 10.7592 8.66522 11.3319 9.30918 11.9099L9.77676 11.389C9.1341 10.8122 8.50198 10.2404 7.87154 9.66693L7.40049 10.1847ZM9.80402 11.8826L11.7481 9.70564L11.226 9.23938L9.28191 11.4163L9.80402 11.8826ZM11.7477 9.2389C9.86778 7.14162 8.00534 5.04482 6.13301 2.95298L5.61143 3.41984C7.47877 5.5061 9.34894 7.61152 11.2264 9.70612L11.7477 9.2389ZM6.1473 2.97001C6.05091 2.84748 5.91576 2.7624 5.76538 2.72686L5.60439 3.4081C5.60309 3.40779 5.60016 3.40665 5.59714 3.40281L6.1473 2.97001ZM5.72266 2.71952C4.76857 2.61594 3.81221 2.52094 2.81668 2.41937L2.74564 3.11576C3.74366 3.21758 4.69601 3.31218 5.64711 3.41544L5.72266 2.71952ZM5.86747 16.3948L2.73753 19.5542L3.23482 20.0469L6.36476 16.8874L5.86747 16.3948ZM2.72624 20.0349L3.91212 21.3501L4.43198 20.8813L3.2461 19.5662L2.72624 20.0349ZM4.42067 21.362L7.56829 18.1854L7.07104 17.6927L3.92343 20.8693L4.42067 21.362ZM7.5763 17.701L6.37275 16.4031L5.85947 16.8791L7.06303 18.177L7.5763 17.701ZM21.2704 19.5714L18.1263 16.3982L17.6291 16.8909L20.7732 20.0641L21.2704 19.5714ZM17.6216 16.406L16.4127 17.7039L16.925 18.181L18.1338 16.8831L17.6216 16.406ZM16.4201 18.1887L19.5589 21.3585L20.0563 20.866L16.9175 17.6962L16.4201 18.1887ZM20.0629 21.3517L21.2771 20.0572L20.7665 19.5783L19.5523 20.8728L20.0629 21.3517ZM17.6793 13.7483L13.4995 17.7126L13.9812 18.2205L18.161 14.2562L17.6793 13.7483ZM13.5103 18.2303L14.3833 18.9921L14.8436 18.4647L13.9705 17.7029L13.5103 18.2303ZM14.8544 18.9823L19.0306 15.0179L18.5487 14.5102L14.3725 18.4746L14.8544 18.9823ZM19.0203 14.5008L18.1508 13.739L17.6895 14.2655L18.559 15.0273L19.0203 14.5008ZM4.97042 15.0284L9.10597 18.9497L9.58761 18.4417L5.45206 14.5204L4.97042 15.0284ZM9.57384 18.962L10.4575 18.2088L10.0034 17.6761L9.11975 18.4293L9.57384 18.962ZM10.4713 17.6885L6.34455 13.7758L5.86293 14.2838L9.98965 18.1964L10.4713 17.6885ZM5.87953 13.7611L4.98702 14.5057L5.43546 15.0432L6.32796 14.2986L5.87953 13.7611ZM16.3151 14.3468C15.7996 13.7683 15.2265 13.1297 14.6466 12.4799L14.1243 12.946C14.7073 13.5993 15.2759 14.2327 15.7925 14.8125L16.3151 14.3468ZM14.1494 12.4545L12.3132 14.1316L12.7852 14.6485L14.6215 12.9714L14.1494 12.4545ZM12.3133 14.6486L14.3034 16.4636L14.7751 15.9464L12.785 14.1314L12.3133 14.6486ZM14.7953 16.4436L16.3099 14.8183L15.7978 14.341L14.2832 15.9664L14.7953 16.4436ZM7.50242 14.4807L7.63265 14.3356L7.11161 13.8681L6.98139 14.0132L7.50242 14.4807ZM7.63264 14.3356C8.23433 13.6649 8.76812 13.07 9.31274 12.46L8.79056 11.9938C8.24662 12.6031 7.7134 13.1974 7.11161 13.8681L7.63264 14.3356ZM21.0165 3.13653H21.2038V2.43653H21.0165V3.13653ZM8.22823 14.7741L8.29634 14.6974L7.77289 14.2326L7.70479 14.3093L8.22823 14.7741ZM8.29634 14.6974C8.58455 14.3728 8.95222 13.9587 9.32133 13.5461L8.79965 13.0794C8.42952 13.4931 8.061 13.9081 7.77289 14.2326L8.29634 14.6974Z" fill="#646D7A" mask="url(#path-1-outside-1_2062_3154)"/>
</svg>
