<svg viewBox="0 0 16 16" xmlns="http://www.w3.org/2000/svg">
<path d="M7.06634 9.20004L5.61634 7.75004C5.49412 7.62782 5.34145 7.5696 5.15834 7.57537C4.97479 7.58071 4.8219 7.64448 4.69967 7.76671C4.57745 7.88893 4.51634 8.04449 4.51634 8.23337C4.51634 8.42226 4.57745 8.57782 4.69967 8.70004L6.59967 10.6C6.7219 10.7223 6.87745 10.7834 7.06634 10.7834C7.25523 10.7834 7.41079 10.7223 7.53301 10.6L11.3163 6.81671C11.4386 6.69449 11.497 6.5416 11.4917 6.35804C11.4859 6.17493 11.4219 6.02226 11.2997 5.90004C11.1775 5.77782 11.0219 5.71671 10.833 5.71671C10.6441 5.71671 10.4886 5.77782 10.3663 5.90004L7.06634 9.20004ZM7.99967 14.6667C7.07745 14.6667 6.21079 14.4916 5.39967 14.1414C4.58856 13.7916 3.88301 13.3167 3.28301 12.7167C2.68301 12.1167 2.20812 11.4112 1.85834 10.6C1.50812 9.78893 1.33301 8.92226 1.33301 8.00004C1.33301 7.07782 1.50812 6.21115 1.85834 5.40004C2.20812 4.58893 2.68301 3.88337 3.28301 3.28337C3.88301 2.68337 4.58856 2.20826 5.39967 1.85804C6.21079 1.50826 7.07745 1.33337 7.99967 1.33337C8.9219 1.33337 9.78856 1.50826 10.5997 1.85804C11.4108 2.20826 12.1163 2.68337 12.7163 3.28337C13.3163 3.88337 13.7912 4.58893 14.141 5.40004C14.4912 6.21115 14.6663 7.07782 14.6663 8.00004C14.6663 8.92226 14.4912 9.78893 14.141 10.6C13.7912 11.4112 13.3163 12.1167 12.7163 12.7167C12.1163 13.3167 11.4108 13.7916 10.5997 14.1414C9.78856 14.4916 8.9219 14.6667 7.99967 14.6667ZM7.99967 13.3334C9.47745 13.3334 10.7359 12.814 11.775 11.7754C12.8137 10.7363 13.333 9.47782 13.333 8.00004C13.333 6.52226 12.8137 5.26382 11.775 4.22471C10.7359 3.18604 9.47745 2.66671 7.99967 2.66671C6.5219 2.66671 5.26367 3.18604 4.22501 4.22471C3.1859 5.26382 2.66634 6.52226 2.66634 8.00004C2.66634 9.47782 3.1859 10.7363 4.22501 11.7754C5.26367 12.814 6.5219 13.3334 7.99967 13.3334Z" />
</svg>
