<svg viewBox="0 0 16 16" xmlns="http://www.w3.org/2000/svg">
<path d="M7.99967 8.66671C8.18856 8.66671 8.34701 8.60271 8.47501 8.47471C8.60256 8.34715 8.66634 8.18893 8.66634 8.00004V5.31671C8.66634 5.12782 8.60256 4.97226 8.47501 4.85004C8.34701 4.72782 8.18856 4.66671 7.99967 4.66671C7.81079 4.66671 7.65256 4.73049 7.52501 4.85804C7.39701 4.98604 7.33301 5.14449 7.33301 5.33337V8.01671C7.33301 8.2056 7.39701 8.36115 7.52501 8.48337C7.65256 8.6056 7.81079 8.66671 7.99967 8.66671ZM7.99967 11.3334C8.18856 11.3334 8.34701 11.2694 8.47501 11.1414C8.60256 11.0138 8.66634 10.8556 8.66634 10.6667C8.66634 10.4778 8.60256 10.3194 8.47501 10.1914C8.34701 10.0638 8.18856 10 7.99967 10C7.81079 10 7.65256 10.0638 7.52501 10.1914C7.39701 10.3194 7.33301 10.4778 7.33301 10.6667C7.33301 10.8556 7.39701 11.0138 7.52501 11.1414C7.65256 11.2694 7.81079 11.3334 7.99967 11.3334ZM7.99967 14.6667C7.07745 14.6667 6.21079 14.4916 5.39967 14.1414C4.58856 13.7916 3.88301 13.3167 3.28301 12.7167C2.68301 12.1167 2.20812 11.4112 1.85834 10.6C1.50812 9.78893 1.33301 8.92226 1.33301 8.00004C1.33301 7.07782 1.50812 6.21115 1.85834 5.40004C2.20812 4.58893 2.68301 3.88337 3.28301 3.28337C3.88301 2.68337 4.58856 2.20826 5.39967 1.85804C6.21079 1.50826 7.07745 1.33337 7.99967 1.33337C8.9219 1.33337 9.78856 1.50826 10.5997 1.85804C11.4108 2.20826 12.1163 2.68337 12.7163 3.28337C13.3163 3.88337 13.7912 4.58893 14.141 5.40004C14.4912 6.21115 14.6663 7.07782 14.6663 8.00004C14.6663 8.92226 14.4912 9.78893 14.141 10.6C13.7912 11.4112 13.3163 12.1167 12.7163 12.7167C12.1163 13.3167 11.4108 13.7916 10.5997 14.1414C9.78856 14.4916 8.9219 14.6667 7.99967 14.6667ZM7.99967 13.3334C9.47745 13.3334 10.7359 12.814 11.775 11.7754C12.8137 10.7363 13.333 9.47782 13.333 8.00004C13.333 6.52226 12.8137 5.26382 11.775 4.22471C10.7359 3.18604 9.47745 2.66671 7.99967 2.66671C6.5219 2.66671 5.26367 3.18604 4.22501 4.22471C3.1859 5.26382 2.66634 6.52226 2.66634 8.00004C2.66634 9.47782 3.1859 10.7363 4.22501 11.7754C5.26367 12.814 6.5219 13.3334 7.99967 13.3334Z" />
</svg>
