<svg width="16" height="17" viewBox="0 0 16 17" fill="none" xmlns="http://www.w3.org/2000/svg">
<path d="M13.3333 5.16683V5.0335C13.3333 3.91339 13.3333 3.35334 13.1154 2.92552C12.9236 2.54919 12.6176 2.24323 12.2413 2.05148C11.8135 1.8335 11.2534 1.8335 10.1333 1.8335H5.86667C4.74657 1.8335 4.18651 1.8335 3.75869 2.05148C3.38237 2.24323 3.07641 2.54919 2.88466 2.92552C2.66667 3.35334 2.66667 3.91339 2.66667 5.0335V11.9668C2.66667 13.0869 2.66667 13.647 2.88466 14.0748C3.07641 14.4511 3.38237 14.7571 3.75869 14.9488C4.18651 15.1668 4.74657 15.1668 5.86667 15.1668H8.33334M12 12.5002V8.8335C12 8.28121 12.4477 7.8335 13 7.8335C13.5523 7.8335 14 8.28121 14 8.8335V12.5002C14 13.6047 13.1046 14.5002 12 14.5002C10.8954 14.5002 10 13.6047 10 12.5002V9.8335" stroke="#646D7A" stroke-width="1.2" stroke-linecap="round" stroke-linejoin="round"/>
</svg>
