<svg width="16" height="16" viewBox="0 0 16 16" fill="none" xmlns="http://www.w3.org/2000/svg">
<path d="M13.3333 7.96095V4.5335C13.3333 3.41339 13.3333 2.85334 13.1154 2.42552C12.9236 2.04919 12.6176 1.74323 12.2413 1.55148C11.8135 1.3335 11.2534 1.3335 10.1333 1.3335H5.86667C4.74657 1.3335 4.18651 1.3335 3.75869 1.55148C3.38237 1.74323 3.07641 2.04919 2.88466 2.42552C2.66667 2.85334 2.66667 3.41339 2.66667 4.5335V11.4668C2.66667 12.5869 2.66667 13.147 2.88466 13.5748C3.07641 13.9511 3.38237 14.2571 3.75869 14.4488C4.18651 14.6668 4.74657 14.6668 5.86667 14.6668H9.33334M9.33334 7.3335H5.33334M6.66667 10.0002H5.33334M10.6667 4.66683H5.33334M10 11.3335H14" stroke="#F03810" stroke-width="1.2" stroke-linecap="round" stroke-linejoin="round"/>
</svg>
