<svg width="16" height="17" viewBox="0 0 16 17" fill="none" xmlns="http://www.w3.org/2000/svg">
<path d="M9.33332 2.01314V4.76683C9.33332 5.1402 9.33332 5.32688 9.40599 5.46949C9.4699 5.59493 9.57189 5.69692 9.69733 5.76083C9.83994 5.8335 10.0266 5.8335 10.4 5.8335H13.1537M13.3333 7.15898V11.9668C13.3333 13.0869 13.3333 13.647 13.1153 14.0748C12.9236 14.4511 12.6176 14.7571 12.2413 14.9488C11.8135 15.1668 11.2534 15.1668 10.1333 15.1668H5.86666C4.74655 15.1668 4.1865 15.1668 3.75868 14.9488C3.38235 14.7571 3.07639 14.4511 2.88464 14.0748C2.66666 13.647 2.66666 13.0869 2.66666 11.9668V5.0335C2.66666 3.91339 2.66666 3.35334 2.88464 2.92552C3.07639 2.54919 3.38235 2.24323 3.75868 2.05148C4.1865 1.8335 4.74655 1.8335 5.86666 1.8335H8.00784C8.49702 1.8335 8.74161 1.8335 8.97179 1.88876C9.17586 1.93775 9.37095 2.01856 9.54989 2.12822C9.75173 2.2519 9.92468 2.42485 10.2706 2.77075L12.3961 4.89624C12.742 5.24214 12.9149 5.41509 13.0386 5.61693C13.1483 5.79587 13.2291 5.99096 13.2781 6.19503C13.3333 6.42521 13.3333 6.6698 13.3333 7.15898Z" stroke="#646D7A" stroke-width="1.2" stroke-linecap="round" stroke-linejoin="round"/>
</svg>
