<svg width="50" height="23" viewBox="0 0 50 23" fill="none" xmlns="http://www.w3.org/2000/svg">
<path d="M3.27841 15V3.36364H5.03409V13.4886H10.3068V15H3.27841ZM21.9645 9.18182C21.9645 10.4242 21.7372 11.4924 21.2827 12.3864C20.8281 13.2765 20.205 13.9621 19.4134 14.4432C18.6255 14.9205 17.7296 15.1591 16.7259 15.1591C15.7183 15.1591 14.8187 14.9205 14.027 14.4432C13.2391 13.9621 12.6179 13.2746 12.1634 12.3807C11.7088 11.4867 11.4815 10.4205 11.4815 9.18182C11.4815 7.93939 11.7088 6.87311 12.1634 5.98295C12.6179 5.08901 13.2391 4.40341 14.027 3.92614C14.8187 3.44508 15.7183 3.20455 16.7259 3.20455C17.7296 3.20455 18.6255 3.44508 19.4134 3.92614C20.205 4.40341 20.8281 5.08901 21.2827 5.98295C21.7372 6.87311 21.9645 7.93939 21.9645 9.18182ZM20.2259 9.18182C20.2259 8.23485 20.0724 7.4375 19.7656 6.78977C19.4626 6.13826 19.0459 5.64583 18.5156 5.3125C17.9891 4.97538 17.3925 4.80682 16.7259 4.80682C16.0554 4.80682 15.4569 4.97538 14.9304 5.3125C14.4039 5.64583 13.9872 6.13826 13.6804 6.78977C13.3774 7.4375 13.2259 8.23485 13.2259 9.18182C13.2259 10.1288 13.3774 10.928 13.6804 11.5795C13.9872 12.2273 14.4039 12.7197 14.9304 13.0568C15.4569 13.3902 16.0554 13.5568 16.7259 13.5568C17.3925 13.5568 17.9891 13.3902 18.5156 13.0568C19.0459 12.7197 19.4626 12.2273 19.7656 11.5795C20.0724 10.928 20.2259 10.1288 20.2259 9.18182ZM32.0284 7.03977C31.9186 6.69508 31.7708 6.38636 31.5852 6.11364C31.4034 5.83712 31.1856 5.60227 30.9318 5.40909C30.678 5.21212 30.3883 5.0625 30.0625 4.96023C29.7405 4.85795 29.3864 4.80682 29 4.80682C28.3447 4.80682 27.7538 4.97538 27.2273 5.3125C26.7008 5.64962 26.2841 6.14394 25.9773 6.79545C25.6742 7.44318 25.5227 8.23674 25.5227 9.17614C25.5227 10.1193 25.6761 10.9167 25.983 11.5682C26.2898 12.2197 26.7102 12.714 27.2443 13.0511C27.7784 13.3883 28.3864 13.5568 29.0682 13.5568C29.7008 13.5568 30.2519 13.428 30.7216 13.1705C31.1951 12.9129 31.5606 12.5492 31.8182 12.0795C32.0795 11.6061 32.2102 11.0492 32.2102 10.4091L32.6648 10.4943H29.3352V9.04545H33.9091V10.3693C33.9091 11.3466 33.7008 12.1951 33.2841 12.9148C32.8712 13.6307 32.2992 14.1837 31.5682 14.5739C30.8409 14.964 30.0076 15.1591 29.0682 15.1591C28.0152 15.1591 27.0909 14.9167 26.2955 14.4318C25.5038 13.947 24.8864 13.2595 24.4432 12.3693C24 11.4754 23.7784 10.4148 23.7784 9.1875C23.7784 8.25947 23.9072 7.42614 24.1648 6.6875C24.4223 5.94886 24.7841 5.32197 25.25 4.80682C25.7197 4.28788 26.2708 3.89205 26.9034 3.61932C27.5398 3.3428 28.2348 3.20455 28.9886 3.20455C29.6174 3.20455 30.2027 3.29735 30.7443 3.48295C31.2898 3.66856 31.7746 3.93182 32.1989 4.27273C32.6269 4.61364 32.9811 5.01894 33.2614 5.48864C33.5417 5.95455 33.7311 6.47159 33.8295 7.03977H32.0284ZM46.2457 9.18182C46.2457 10.4242 46.0185 11.4924 45.5639 12.3864C45.1094 13.2765 44.4863 13.9621 43.6946 14.4432C42.9067 14.9205 42.0109 15.1591 41.0071 15.1591C39.9995 15.1591 39.0999 14.9205 38.3082 14.4432C37.5204 13.9621 36.8991 13.2746 36.4446 12.3807C35.9901 11.4867 35.7628 10.4205 35.7628 9.18182C35.7628 7.93939 35.9901 6.87311 36.4446 5.98295C36.8991 5.08901 37.5204 4.40341 38.3082 3.92614C39.0999 3.44508 39.9995 3.20455 41.0071 3.20455C42.0109 3.20455 42.9067 3.44508 43.6946 3.92614C44.4863 4.40341 45.1094 5.08901 45.5639 5.98295C46.0185 6.87311 46.2457 7.93939 46.2457 9.18182ZM44.5071 9.18182C44.5071 8.23485 44.3537 7.4375 44.0469 6.78977C43.7438 6.13826 43.3272 5.64583 42.7969 5.3125C42.2704 4.97538 41.6738 4.80682 41.0071 4.80682C40.3366 4.80682 39.7382 4.97538 39.2116 5.3125C38.6851 5.64583 38.2685 6.13826 37.9616 6.78977C37.6586 7.4375 37.5071 8.23485 37.5071 9.18182C37.5071 10.1288 37.6586 10.928 37.9616 11.5795C38.2685 12.2273 38.6851 12.7197 39.2116 13.0568C39.7382 13.3902 40.3366 13.5568 41.0071 13.5568C41.6738 13.5568 42.2704 13.3902 42.7969 13.0568C43.3272 12.7197 43.7438 12.2273 44.0469 11.5795C44.3537 10.928 44.5071 10.1288 44.5071 9.18182Z" fill="#141736"/>
<rect y="21" width="50" height="2" fill="#54B975"/>
</svg>
