<svg width="16" height="16" viewBox="0 0 16 16" fill="none" xmlns="http://www.w3.org/2000/svg">
<path d="M7.99975 13.3332C7.63308 13.3332 7.3193 13.2027 7.05841 12.9418C6.79708 12.6805 6.66641 12.3665 6.66641 11.9998C6.66641 11.6332 6.79708 11.3192 7.05841 11.0578C7.3193 10.7969 7.63308 10.6665 7.99975 10.6665C8.36641 10.6665 8.68041 10.7969 8.94175 11.0578C9.20264 11.3192 9.33308 11.6332 9.33308 11.9998C9.33308 12.3665 9.20264 12.6805 8.94175 12.9418C8.68041 13.2027 8.36641 13.3332 7.99975 13.3332ZM7.99975 9.33317C7.63308 9.33317 7.3193 9.2025 7.05841 8.94117C6.79708 8.68028 6.66641 8.3665 6.66641 7.99984C6.66641 7.63317 6.79708 7.31917 7.05841 7.05784C7.3193 6.79695 7.63308 6.6665 7.99975 6.6665C8.36641 6.6665 8.68041 6.79695 8.94175 7.05784C9.20264 7.31917 9.33308 7.63317 9.33308 7.99984C9.33308 8.3665 9.20264 8.68028 8.94175 8.94117C8.68041 9.2025 8.36641 9.33317 7.99975 9.33317ZM7.99975 5.33317C7.63308 5.33317 7.3193 5.2025 7.05841 4.94117C6.79708 4.68028 6.66641 4.3665 6.66641 3.99984C6.66641 3.63317 6.79708 3.31939 7.05841 3.0585C7.3193 2.79717 7.63308 2.6665 7.99975 2.6665C8.36641 2.6665 8.68041 2.79717 8.94175 3.0585C9.20264 3.31939 9.33308 3.63317 9.33308 3.99984C9.33308 4.3665 9.20264 4.68028 8.94175 4.94117C8.68041 5.2025 8.36641 5.33317 7.99975 5.33317Z" fill="#646D7A"/>
</svg>