<svg viewBox="0 0 16 16" fill="none" xmlns="http://www.w3.org/2000/svg">
<path d="M9.33334 1.51294V4.26663C9.33334 4.64 9.33334 4.82669 9.406 4.96929C9.46992 5.09473 9.5719 5.19672 9.69734 5.26064C9.83995 5.3333 10.0266 5.3333 10.4 5.3333H13.1537M9.33334 11.3333H5.33334M10.6667 8.66658H5.33334M13.3333 6.65873V11.4666C13.3333 12.5867 13.3333 13.1467 13.1154 13.5746C12.9236 13.9509 12.6176 14.2569 12.2413 14.4486C11.8135 14.6666 11.2534 14.6666 10.1333 14.6666H5.86667C4.74657 14.6666 4.18651 14.6666 3.75869 14.4486C3.38237 14.2569 3.07641 13.9509 2.88466 13.5746C2.66667 13.1467 2.66667 12.5867 2.66667 11.4666V4.53325C2.66667 3.41315 2.66667 2.85309 2.88466 2.42527C3.07641 2.04895 3.38237 1.74299 3.75869 1.55124C4.18651 1.33325 4.74657 1.33325 5.86667 1.33325H8.00786C8.49704 1.33325 8.74163 1.33325 8.9718 1.38851C9.17587 1.43751 9.37096 1.51831 9.54991 1.62797C9.75174 1.75166 9.92469 1.92461 10.2706 2.27051L12.3961 4.39599C12.742 4.7419 12.9149 4.91485 13.0386 5.11668C13.1483 5.29563 13.2291 5.49072 13.2781 5.69479C13.3333 5.92496 13.3333 6.16955 13.3333 6.65873Z" stroke-width="1.2" stroke-linecap="round" stroke-linejoin="round"/>
</svg>
