<svg width="16" height="16" viewBox="0 0 16 16" fill="none" xmlns="http://www.w3.org/2000/svg">
<path d="M8.68041 2.41527C8.55947 2.16149 8.3039 2 8.02322 2C7.74255 2 7.48926 2.16149 7.36603 2.41527L5.89877 5.46751L2.62196 5.9566C2.34814 5.99813 2.11995 6.19192 2.03552 6.45723C1.95109 6.72255 2.01954 7.01554 2.21579 7.21164L4.59353 9.59022L4.03218 12.9516C3.98654 13.2284 4.10064 13.5099 4.32654 13.6737C4.55245 13.8375 4.85138 13.8583 5.09783 13.7268L8.0255 12.1464L10.9532 13.7268C11.1996 13.8583 11.4986 13.8398 11.7245 13.6737C11.9504 13.5076 12.0645 13.2284 12.0188 12.9516L11.4552 9.59022L13.8329 7.21164C14.0292 7.01554 14.0999 6.72255 14.0132 6.45723C13.9265 6.19192 13.7006 5.99813 13.4268 5.9566L10.1477 5.46751L8.68041 2.41527Z"/>
</svg>
