<svg viewBox="0 0 16 16" fill="none" xmlns="http://www.w3.org/2000/svg">
<path d="M5.33333 11.3333H2.66667C2.47778 11.3333 2.31956 11.2693 2.192 11.1413C2.064 11.0137 2 10.8555 2 10.6666C2 10.4777 2.064 10.3195 2.192 10.1919C2.31956 10.0639 2.47778 9.99992 2.66667 9.99992H5.33333C5.52222 9.99992 5.68067 10.0639 5.80867 10.1919C5.93622 10.3195 6 10.4777 6 10.6666C6 10.8555 5.93622 11.0137 5.80867 11.1413C5.68067 11.2693 5.52222 11.3333 5.33333 11.3333ZM13.3333 4.66659H2.66667C2.47778 4.66659 2.31956 4.60281 2.192 4.47525C2.064 4.34725 2 4.18881 2 3.99992C2 3.81103 2.064 3.65259 2.192 3.52459C2.31956 3.39703 2.47778 3.33325 2.66667 3.33325H13.3333C13.5222 3.33325 13.6804 3.39703 13.808 3.52459C13.936 3.65259 14 3.81103 14 3.99992C14 4.18881 13.936 4.34725 13.808 4.47525C13.6804 4.60281 13.5222 4.66659 13.3333 4.66659ZM9.33333 7.99992H2.66667C2.47778 7.99992 2.31956 7.93592 2.192 7.80792C2.064 7.68036 2 7.52214 2 7.33325C2 7.14436 2.064 6.98592 2.192 6.85792C2.31956 6.73036 2.47778 6.66659 2.66667 6.66659H9.33333C9.52222 6.66659 9.68067 6.73036 9.80867 6.85792C9.93622 6.98592 10 7.14436 10 7.33325C10 7.52214 9.93622 7.68036 9.80867 7.80792C9.68067 7.93592 9.52222 7.99992 9.33333 7.99992Z"/>
</svg>
