<svg width="24" height="24" viewBox="0 0 24 24" fill="none" xmlns="http://www.w3.org/2000/svg">
<path d="M21 4.15501C20.7511 5.86918 20.5312 7.58653 20.2532 9.29436C19.7585 12.3393 19.2251 15.3811 18.7175 18.4261C18.5235 19.5699 17.5601 20.248 16.5547 19.9153C16.3971 19.8607 16.248 19.785 16.1118 19.6903C13.9694 18.2666 11.827 16.8407 9.68461 15.4128C9.08974 15.0167 8.94103 14.5319 9.27079 13.9046C9.43798 13.5947 9.65648 13.3142 9.91738 13.0744C11.4013 11.6993 12.9014 10.3431 14.3918 8.97751C14.7313 8.66066 15.0384 8.3438 15.3617 7.99844C15.4509 7.90753 15.5202 7.7997 15.5654 7.68158C15.6009 7.59286 15.6171 7.4281 15.5654 7.39325C15.5181 7.3629 15.4642 7.34392 15.408 7.33786C15.3518 7.3318 15.295 7.33884 15.2421 7.35839C14.8271 7.56028 14.4245 7.78563 14.0362 8.03329C11.7731 9.52566 9.49387 11.0085 7.24695 12.5358C6.72691 12.9033 6.12297 13.1406 5.48786 13.2267C4.85274 13.3129 4.20576 13.2454 3.6034 13.0301C2.70787 12.7481 1.8285 12.428 0.942666 12.108C0.731934 12.0266 0.53216 11.9202 0.347799 11.7912C-0.127448 11.4743 -0.117747 11.1289 0.389829 10.8596C1.03642 10.5206 1.68302 10.1847 2.32961 9.88688C7.67694 7.45979 13.1374 5.30519 18.627 3.23297C18.9962 3.09862 19.3845 3.02165 19.7779 3.00484C20.6605 2.95414 20.9838 3.29951 21 4.15501Z" fill="#2894F9"/>
</svg>
