<svg width="24" height="24" viewBox="0 0 24 24" fill="none" xmlns="http://www.w3.org/2000/svg">
<path d="M16.9896 14.1091C16.644 13.921 16.341 13.7432 15.9263 13.5603C15.8031 13.4353 15.6516 13.3407 15.4841 13.2843C15.3166 13.2279 15.138 13.2112 14.9627 13.2357C14.7874 13.2602 14.6205 13.3251 14.4757 13.4251C14.3308 13.5251 14.2121 13.6574 14.1292 13.8112C13.8793 14.0778 13.6294 14.3339 13.3742 14.6004C13.3742 14.6004 10.0777 13.4453 9.17916 11.0462L9.56198 10.6071C9.76934 10.3615 10.0937 10.121 10.0937 9.77083C10.0837 9.43056 10.0023 9.09599 9.85441 8.78818L9.61515 8.19755C9.49316 7.81635 9.31396 7.4552 9.08346 7.12604C8.93677 6.98964 8.75093 6.90092 8.55118 6.87193C8.35142 6.84294 8.14744 6.87509 7.96692 6.96401C7.96692 6.96401 5.81358 8.00938 6.49946 10.0479C7.00659 11.8085 8.01363 13.3907 9.40258 14.6089C10.7915 15.8271 12.5048 16.631 14.3418 16.9264C14.3418 16.9264 16.6759 17.2296 17.2874 15.834C17.4262 15.5029 17.4915 15.1465 17.4788 14.7886C17.4604 14.6446 17.4061 14.5072 17.3207 14.3887C17.2354 14.2702 17.1217 14.1741 16.9896 14.1091ZM11.9173 1.02107C9.97102 1.0383 8.06409 1.56215 6.39063 2.53931C4.71717 3.51647 3.33693 4.91204 2.39039 6.584C1.44385 8.25595 0.964809 10.1446 1.00201 12.0577C1.03922 13.9708 1.59135 15.8401 2.6022 17.4752L1.26236 23L6.77062 21.3849C8.24998 22.1645 9.89093 22.6017 11.5683 22.663C13.2457 22.7244 14.9151 22.4083 16.4493 21.7389C17.9835 21.0695 19.3419 20.0645 20.421 18.8005C21.5 17.5365 22.2711 16.047 22.6754 14.4454C23.0798 12.8439 23.1067 11.1728 22.7541 9.55948C22.4016 7.94618 21.6789 6.43335 20.6411 5.13639C19.6034 3.83943 18.278 2.79261 16.7662 2.07579C15.2543 1.35896 13.5958 0.991066 11.9173 1.00016V1.02107ZM12.2364 20.8831C10.3849 20.9047 8.57084 20.3705 7.03647 19.3517L3.89952 20.2716L4.67047 17.078C3.48996 15.435 2.90367 13.4504 3.0053 11.4414C3.10692 9.43235 3.89059 7.51476 5.23109 5.99502C6.57158 4.47528 8.39154 3.44108 10.4002 3.05767C12.4088 2.67425 14.4903 2.96374 16.3119 3.8799C18.1335 4.79605 19.5902 6.28599 20.4492 8.11166C21.3083 9.93733 21.52 11.9934 21.0507 13.9513C20.5815 15.9092 19.4582 17.6559 17.8603 18.9125C16.2625 20.1691 14.2824 20.8629 12.2364 20.8831Z" fill="#54B975"/>
</svg>
